<svg width="268" height="243" viewBox="0 0 268 243" fill="none" xmlns="http://www.w3.org/2000/svg">
<path d="M276.03 235.32L230.29 256C227.47 257.33 224.53 257.2 221.83 255.64L164.09 226.32C162.44 225.26 161.95 223.71 162.05 222.63C162.15 221.55 162.4 220.38 165.3 219.54L169.58 217.96L227.5 249.53L268.66 232.71L276.03 235.32Z" fill="#01579B"/>
<path d="M229.74 252.69C228.596 253.227 227.341 253.483 226.079 253.438C224.816 253.392 223.582 253.047 222.48 252.43L166.11 224.03C165.31 223.59 165.07 222.58 165.55 221.8C166.79 219.75 169.07 213.27 165.31 207.89L228.97 238.54L229.74 252.69Z" fill="#F5F5F5"/>
<path d="M273.59 232.98L229.74 252.69C228.29 253.32 225.4 254.44 222.07 252.2C224.7 252.39 226.55 251.3 227.5 249.53C228.43 247.81 228.15 244.99 227.02 243.4C226.33 242.44 224.48 240.91 223.67 240.05L271.1 221.5C275.3 219.77 279.24 222.36 279.87 225.51C280.57 229.07 276.03 231.98 273.59 232.98Z" fill="#94C6D6"/>
<path d="M275.78 219.96L230.51 240.16C227.66 241.29 224.47 241.14 221.74 239.76L163.9 210.38C163.34 210.1 162.51 209.33 162.18 208.28C161.64 206.53 162.32 204.33 164.37 203.63L227.05 235.58L269.97 217.21L275.78 219.96Z" fill="#01579B"/>
<path d="M279.19 222.89L274.26 221.1L264.1 221.69L230.52 236.68C227.67 237.81 224.48 237.66 221.75 236.28L163.9 206.91C162.41 206.15 162.73 203.94 164.37 203.63L206.06 184.98C207.25 184.76 208.47 184.89 209.58 185.36L269.07 213.72C269.07 213.72 278.52 220.19 279.19 222.89Z" fill="#94C6D6"/>
<path d="M263.53 221.98C263.53 221.98 269.79 219.53 274.71 219.75C279.63 219.97 281.34 223.42 281.34 223.42C280.41 219.19 276.04 217.03 276.04 217.03L211.04 184.3C210.59 184.11 208.93 183.72 206.38 184.77C204.32 185.62 197.59 188.77 197.59 188.77L263.53 221.98Z" fill="#616161"/>
<path d="M281.62 224.22C281.15 222.35 279.99 220.35 277.85 219.38C275.03 218.11 271.01 218.44 268.44 219.78L263.53 221.96V225.42L269.74 222.66C275.78 219.97 278.46 224 278.69 224.95C279.65 228.82 277.79 231.06 272.3 233.58L263.38 237.6V241.08L273.64 236.51C278.18 234.69 283.36 231.27 281.62 224.22Z" fill="#424242"/>
<path d="M191.01 223.31L173.74 199.44L176.45 198.23L195.88 224.93L191.01 223.31Z" fill="#01579B"/>
<path d="M213.16 234.31L210.08 231.87L263.53 220.96V222.71L256.04 225.55L213.16 234.31Z" fill="#01579B"/>
<path d="M172.8 179.18L240.31 167.9L269.8 200.37C271.29 201.94 270.48 204.54 268.36 204.97L198.66 219.27L172.8 179.18Z" fill="#BAD8BC"/>
<path d="M268.36 202.17L199.14 216.19L198.92 219.49L268.36 205.25C270.32 204.84 271.14 202.6 270.07 201.02C269.69 201.58 269.11 202.02 268.36 202.17Z" fill="#689F38"/>
<path d="M272.09 217.3C272.82 218.46 272.16 219.99 270.82 220.26L207.1 233.18C203.27 233.97 199.51 231.46 199.17 227.56C198.88 224.26 201.11 221.27 204.36 220.59L265.64 206.83L272.09 217.3Z" fill="#689F38"/>
<path d="M213.59 213.1L188.21 176.78L173.73 180.61C170.38 183.94 171.63 189.41 171.63 189.41C171.63 189.41 193.8 224.99 197.3 229.54C200.8 234.09 205.91 233.38 205.91 233.38L214.54 231.64L213.64 215.54L213.59 213.1Z" fill="#699635"/>
<path d="M213.59 213.34L201.4 215.86C198.07 216.61 197.47 219.74 197.47 219.74L168.04 177.57C168.04 177.57 163.85 182.64 166.63 186.95L197.3 229.54C200.65 234.31 205.91 233.42 205.91 233.42L214.54 231.68L213.65 215.9L213.59 213.34Z" fill="#424242"/>
<path d="M268.25 216C268.56 216.68 268.16 217.47 267.43 217.62L206.5 230.12C202.67 230.91 199.96 228.37 200.1 224.91C200.28 220.54 202.73 218.69 205.97 218.02L267.2 205.51C267.2 205.51 265.12 207.85 266.71 212.23C267.25 213.74 267.83 215.08 268.25 216Z" fill="#B9E4EA"/>
<path d="M203.21 216.7L177.1 179.76" stroke="#424242" stroke-width="2.071" stroke-miterlimit="10"/>
<path d="M205.26 200.95L171.68 184.03L170.32 186.71L209.12 206.48L205.26 200.95Z" fill="#424242"/>
<path d="M266.79 197.03L264.33 194.33L226.5 211.69L205.26 201.18L208.88 206.36L222.95 213.55L233.43 211.94L266.79 197.03Z" fill="#689F38"/>
<path d="M276.02 190.35L230.29 211.03C227.47 212.36 224.53 212.23 221.83 210.67L164.09 181.35C162.44 180.29 161.95 178.74 162.05 177.66C162.15 176.58 162.4 175.41 165.3 174.57L168.01 173.57L227.33 202.68L275.5 182.75L276.02 190.35Z" fill="#C62828"/>
<path d="M229.73 207.72C228.586 208.257 227.331 208.513 226.069 208.468C224.806 208.422 223.572 208.077 222.47 207.46L166.1 179.06C165.3 178.62 165.06 177.61 165.54 176.83C166.78 174.78 169.06 168.3 165.3 162.92L227.54 194.58L229.73 207.72Z" fill="#F5F5F5"/>
<path d="M273.58 188.01L229.73 207.72C228.28 208.35 225.39 209.47 222.06 207.23C224.69 207.42 226.54 206.33 227.49 204.56C228.42 202.84 228.14 200.02 227.01 198.43C226.32 197.47 224.47 195.94 223.66 195.08L271.09 176.53C275.29 174.8 279.23 177.39 279.86 180.54C280.56 184.1 276.02 187.01 273.58 188.01Z" fill="#94C6D6"/>
<path d="M275.78 174.99L230.51 195.19C227.66 196.32 224.47 196.17 221.74 194.79L163.89 165.41C163.29 165.11 162.39 164.34 162.1 163.25C161.67 161.63 162.23 159.5 164.36 158.66L217.37 147.43L275.78 174.99Z" fill="#C62828"/>
<path d="M279.18 177.92L274.25 176.13L264.09 176.72L230.51 191.71C227.66 192.84 224.47 192.69 221.74 191.31L163.89 161.93C162.4 161.17 162.93 159.16 164.36 158.65L206.06 140.01C207.25 139.79 208.47 139.92 209.58 140.39L269.07 168.75C269.07 168.75 278.51 175.21 279.18 177.92Z" fill="#F5B346"/>
<path d="M263.53 177C263.53 177 268.74 175.17 273.66 175.39C278.58 175.61 281.35 178.44 281.35 178.44C280.34 173.92 276.05 172.05 276.05 172.05L211.05 139.32C210.6 139.13 208.94 138.74 206.39 139.79C204.33 140.64 197.6 143.79 197.6 143.79L263.53 177Z" fill="#FF8736"/>
<path d="M269.48 174.86L202.97 141.31L205.17 140.32L272.81 174.22L269.48 174.86Z" fill="#424242"/>
<path d="M281.61 179.25C281.14 177.38 280.35 175.57 278.12 174.63C275.27 173.43 272.67 173.18 268.43 174.81L263.52 176.99V180.45L269.73 177.69C272.88 176.21 277.52 176.53 278.68 179.98C279.95 183.76 277.78 186.09 272.29 188.61L263.37 192.63V196.11L273.63 191.54C278.18 189.72 283.36 186.3 281.61 179.25Z" fill="#424242"/>
<path d="M276.03 169.32L230.29 190C227.47 191.33 224.53 191.2 221.83 189.64L164.09 160.32C162.44 159.26 161.95 157.71 162.05 156.63C162.15 155.55 162.4 154.38 165.3 153.54L169.58 151.96L227.5 183.53L268.66 166.71L276.03 169.32Z" fill="#01579B"/>
<path d="M229.74 186.69C228.596 187.227 227.341 187.483 226.079 187.438C224.816 187.392 223.582 187.047 222.48 186.43L166.11 158.03C165.31 157.59 165.07 156.58 165.55 155.8C166.79 153.75 169.07 147.27 165.31 141.89L228.97 172.54L229.74 186.69Z" fill="#F5F5F5"/>
<path d="M273.59 166.98L229.74 186.69C228.29 187.32 225.4 188.44 222.07 186.2C224.7 186.39 226.55 185.3 227.5 183.53C228.43 181.81 228.15 178.99 227.02 177.4C226.33 176.44 224.48 174.91 223.67 174.05L271.1 155.5C275.3 153.77 279.24 156.36 279.87 159.51C280.57 163.07 276.03 165.98 273.59 166.98Z" fill="#94C6D6"/>
<path d="M275.78 153.96L230.51 174.16C227.66 175.29 224.47 175.14 221.74 173.76L163.9 144.38C163.34 144.1 162.51 143.33 162.18 142.28C161.64 140.53 162.32 138.33 164.37 137.63L227.05 169.58L269.97 151.21L275.78 153.96Z" fill="#01579B"/>
<path d="M279.19 156.89L274.26 155.1L264.1 155.69L230.52 170.68C227.67 171.81 224.48 171.66 221.75 170.28L163.9 140.91C162.41 140.15 162.73 137.94 164.37 137.63L206.06 118.98C207.25 118.76 208.47 118.89 209.58 119.36L269.07 147.72C269.07 147.72 278.52 154.19 279.19 156.89Z" fill="#94C6D6"/>
<path d="M263.53 155.98C263.53 155.98 269.79 153.53 274.71 153.75C279.63 153.97 281.34 157.42 281.34 157.42C280.41 153.19 276.04 151.03 276.04 151.03L211.04 118.3C210.59 118.11 208.93 117.72 206.38 118.77C204.32 119.62 197.59 122.77 197.59 122.77L263.53 155.98Z" fill="#616161"/>
<path d="M281.62 158.22C281.15 156.35 279.99 154.35 277.85 153.38C275.03 152.11 271.01 152.44 268.44 153.78L263.53 155.96V159.42L269.74 156.66C275.78 153.97 278.46 158 278.69 158.95C279.65 162.82 277.79 165.06 272.3 167.58L263.38 171.6V175.08L273.64 170.51C278.18 168.69 283.36 165.27 281.62 158.22Z" fill="#424242"/>
<path d="M191.01 157.31L173.74 133.44L176.45 132.23L195.88 158.93L191.01 157.31Z" fill="#01579B"/>
<path d="M213.16 168.31L210.08 165.87L263.53 154.96V156.71L256.04 159.55L213.16 168.31Z" fill="#01579B"/>
<path d="M172.8 113.18L240.31 101.9L269.8 134.37C271.29 135.94 270.48 138.54 268.36 138.97L198.66 153.27L172.8 113.18Z" fill="#BAD8BC"/>
<path d="M268.36 136.17L199.14 150.19L198.92 153.49L268.36 139.25C270.32 138.84 271.14 136.6 270.07 135.02C269.69 135.58 269.11 136.02 268.36 136.17Z" fill="#689F38"/>
<path d="M272.09 151.3C272.82 152.46 272.16 153.99 270.82 154.26L207.1 167.18C203.27 167.97 199.51 165.46 199.17 161.56C198.88 158.26 201.11 155.27 204.36 154.59L265.64 140.83L272.09 151.3Z" fill="#689F38"/>
<path d="M213.59 147.1L188.21 110.78L173.73 114.61C170.38 117.94 171.63 123.41 171.63 123.41C171.63 123.41 193.8 158.99 197.3 163.54C200.8 168.09 205.91 167.38 205.91 167.38L214.54 165.64L213.64 149.54L213.59 147.1Z" fill="#699635"/>
<path d="M213.59 147.34L201.4 149.86C198.07 150.61 197.47 153.74 197.47 153.74L168.04 111.57C168.04 111.57 163.85 116.64 166.63 120.95L197.3 163.54C200.65 168.31 205.91 167.42 205.91 167.42L214.54 165.68L213.65 149.9L213.59 147.34Z" fill="#424242"/>
<path d="M268.25 150C268.56 150.68 268.16 151.47 267.43 151.62L206.5 164.12C202.67 164.91 199.96 162.37 200.1 158.91C200.28 154.54 202.73 152.69 205.97 152.02L267.2 139.51C267.2 139.51 265.12 141.85 266.71 146.23C267.25 147.74 267.83 149.08 268.25 150Z" fill="#B9E4EA"/>
<path d="M203.21 150.7L177.1 113.76" stroke="#424242" stroke-width="2.071" stroke-miterlimit="10"/>
<path d="M205.26 134.95L171.68 118.03L170.32 120.71L209.12 140.48L205.26 134.95Z" fill="#424242"/>
<path d="M266.79 131.03L264.33 128.33L226.5 145.69L205.26 135.18L208.88 140.36L222.95 147.55L233.43 145.94L266.79 131.03Z" fill="#689F38"/>
<path d="M276.02 124.35L230.29 145.03C227.47 146.36 224.53 146.23 221.83 144.67L164.09 115.35C162.44 114.29 161.95 112.74 162.05 111.66C162.15 110.58 162.4 109.41 165.3 108.57L168.01 107.57L227.33 136.68L275.5 116.75L276.02 124.35Z" fill="#C62828"/>
<path d="M229.73 141.72C228.586 142.257 227.331 142.513 226.069 142.468C224.806 142.422 223.572 142.077 222.47 141.46L166.1 113.06C165.3 112.62 165.06 111.61 165.54 110.83C166.78 108.78 169.06 102.3 165.3 96.92L227.54 128.58L229.73 141.72Z" fill="#F5F5F5"/>
<path d="M273.58 122.01L229.73 141.72C228.28 142.35 225.39 143.47 222.06 141.23C224.69 141.42 226.54 140.33 227.49 138.56C228.42 136.84 228.14 134.02 227.01 132.43C226.32 131.47 224.47 129.94 223.66 129.08L271.09 110.53C275.29 108.8 279.23 111.39 279.86 114.54C280.56 118.1 276.02 121.01 273.58 122.01Z" fill="#94C6D6"/>
<path d="M275.78 108.99L230.51 129.19C227.66 130.32 224.47 130.17 221.74 128.79L163.89 99.41C163.29 99.11 162.39 98.34 162.1 97.25C161.67 95.63 162.23 93.5 164.36 92.66L217.37 81.43L275.78 108.99Z" fill="#C62828"/>
<path d="M279.18 111.92L274.25 110.13L264.09 110.72L230.51 125.71C227.66 126.84 224.47 126.69 221.74 125.31L163.89 95.93C162.4 95.17 162.93 93.16 164.36 92.65L206.06 74.01C207.25 73.79 208.47 73.92 209.58 74.39L269.07 102.75C269.07 102.75 278.51 109.21 279.18 111.92Z" fill="#F5B346"/>
<path d="M263.53 111C263.53 111 268.74 109.17 273.66 109.39C278.58 109.61 281.35 112.44 281.35 112.44C280.34 107.92 276.05 106.05 276.05 106.05L211.05 73.32C210.6 73.13 208.94 72.74 206.39 73.79C204.33 74.64 197.6 77.79 197.6 77.79L263.53 111Z" fill="#FF8736"/>
<path d="M269.48 108.86L202.97 75.31L205.17 74.32L272.81 108.22L269.48 108.86Z" fill="#424242"/>
<path d="M281.61 113.25C281.14 111.38 280.35 109.57 278.12 108.63C275.27 107.43 272.67 107.18 268.43 108.81L263.52 110.99V114.45L269.73 111.69C272.88 110.21 277.52 110.53 278.68 113.98C279.95 117.76 277.78 120.09 272.29 122.61L263.37 126.63V130.11L273.63 125.54C278.18 123.72 283.36 120.3 281.61 113.25Z" fill="#424242"/>
<path d="M168.254 285.853C167.122 286.413 165.873 286.696 164.609 286.677C163.346 286.659 162.106 286.34 160.99 285.746L104.033 258.544C103.223 258.121 102.962 257.116 103.426 256.326C104.622 254.251 106.764 247.724 102.892 242.425L167.185 271.722L168.254 285.853Z" fill="#F5F5F5"/>
<path d="M213.592 252.157L168.759 273.309C165.934 274.499 162.741 274.417 159.983 273.095L101.535 244.944C100.969 244.676 100.123 243.924 99.7705 242.881C99.1936 241.143 99.827 238.929 101.862 238.185L165.203 268.803L207.725 249.53L213.592 252.157Z" fill="#01579B"/>
<path d="M217.063 255.014L212.096 253.328L201.951 254.133L168.696 269.83C165.87 271.02 162.678 270.937 159.919 269.615L101.461 241.475C99.9554 240.746 100.229 238.53 101.862 238.185L143.148 218.658C144.333 218.413 145.556 218.517 146.675 218.964L206.752 246.06C206.752 246.06 216.336 252.329 217.063 255.014Z" fill="#94C6D6"/>
<path d="M201.387 254.435C201.387 254.435 207.594 251.853 212.518 251.969C217.441 252.085 219.224 255.498 219.224 255.498C218.205 251.289 213.79 249.222 213.79 249.222L148.113 217.873C147.659 217.693 145.991 217.338 143.464 218.442C141.422 219.335 134.76 222.627 134.76 222.627L201.387 254.435Z" fill="#616161"/>
<path d="M128.912 257.298L111.141 233.798L113.825 232.531L133.815 258.815L128.912 257.298Z" fill="#01579B"/>
<path d="M109.773 213.563L177.029 200.858L207.199 232.697C208.722 234.236 207.967 236.852 205.857 237.327L136.475 253.097L109.773 213.563Z" fill="#BAD8BC"/>
<path d="M205.798 234.527L136.889 250.008L136.739 253.312L205.863 237.607C207.814 237.155 208.586 234.899 207.483 233.342C207.115 233.909 206.544 234.362 205.798 234.527Z" fill="#689F38"/>
<path d="M209.847 249.575C210.601 250.72 209.973 252.263 208.639 252.561L145.207 266.826C141.394 267.696 137.582 265.266 137.16 261.374C136.8 258.081 138.966 255.045 142.201 254.296L203.177 239.244L209.847 249.575Z" fill="#689F38"/>
<path d="M151.271 246.613L125.129 210.837L110.733 214.973C107.454 218.373 108.819 223.815 108.819 223.815C108.819 223.815 131.737 258.919 135.332 263.394C138.928 267.869 144.021 267.051 144.021 267.051L152.613 265.129L151.372 249.051L151.271 246.613Z" fill="#699635"/>
<path d="M151.276 246.853L139.142 249.63C135.829 250.45 135.295 253.592 135.295 253.592L104.98 212.054C104.98 212.054 100.898 217.211 103.769 221.461L135.332 263.394C138.782 268.092 144.022 267.091 144.022 267.091L152.613 265.169L151.39 249.411L151.276 246.853Z" fill="#424242"/>
<path d="M205.98 248.357C206.304 249.03 205.921 249.828 205.194 249.994L144.542 263.779C140.73 264.65 137.967 262.168 138.034 258.705C138.121 254.333 140.532 252.431 143.757 251.693L204.708 237.891C204.708 237.891 202.678 240.275 204.361 244.62C204.932 246.118 205.541 247.446 205.98 248.357Z" fill="#B9E4EA"/>
<path d="M140.969 250.431L114.084 214.052" stroke="#424242" stroke-width="2.071" stroke-miterlimit="10"/>
<path d="M142.686 234.642L108.756 218.435L107.453 221.143L146.662 240.089L142.686 234.642Z" fill="#424242"/>
<path d="M204.119 229.422L201.603 226.774L164.148 244.93L142.691 234.872L146.419 239.974L160.638 246.865L171.082 245.034L204.119 229.422Z" fill="#689F38"/>
<path d="M213.206 222.548L167.923 244.19C165.132 245.58 162.19 245.512 159.458 244.009L101.111 215.916C99.4387 214.892 98.9161 213.352 98.9932 212.27C99.0704 211.188 99.2956 210.013 102.177 209.112L104.865 208.055L164.788 235.905L212.525 214.961L213.206 222.548Z" fill="#C62828"/>
<path d="M167.294 240.893C166.161 241.453 164.912 241.736 163.649 241.718C162.386 241.699 161.145 241.38 160.03 240.786L103.072 213.584C102.263 213.161 102.001 212.157 102.465 211.367C103.661 209.291 105.804 202.764 101.931 197.465L164.826 227.802L167.294 240.893Z" fill="#F5F5F5"/>
<path d="M210.717 220.26L167.294 240.893C165.857 241.553 162.992 242.734 159.615 240.565C162.248 240.699 164.075 239.571 164.987 237.781C165.881 236.042 165.541 233.228 164.378 231.662C163.668 230.717 161.786 229.227 160.958 228.384L207.985 208.835C212.147 207.017 216.141 209.523 216.838 212.659C217.613 216.204 213.135 219.209 210.717 220.26Z" fill="#94C6D6"/>
<path d="M212.641 207.197L167.809 228.349C164.983 229.539 161.791 229.457 159.032 228.135L100.574 199.984C99.9676 199.697 99.0516 198.946 98.7386 197.863C98.2744 196.252 98.7893 194.111 100.901 193.226L153.662 180.878L212.641 207.197Z" fill="#C62828"/>
<path d="M216.103 210.054L211.136 208.369L200.991 209.173L167.735 224.87C164.909 226.06 161.717 225.977 158.958 224.655L100.5 196.505C98.9945 195.777 99.4819 193.756 100.901 193.216L142.197 173.698C143.383 173.453 144.605 173.557 145.725 174.004L205.801 201.1C205.801 201.1 215.375 207.359 216.103 210.054Z" fill="#F5B346"/>
<path d="M200.437 209.465C200.437 209.465 205.607 207.525 210.53 207.641C215.454 207.757 218.283 210.528 218.283 210.528C217.178 206.031 212.849 204.252 212.849 204.252L147.172 172.903C146.718 172.723 145.05 172.368 142.523 173.471C140.481 174.365 133.819 177.656 133.819 177.656L200.437 209.465Z" fill="#FF8736"/>
<path d="M206.34 207.2L139.136 175.063L141.314 174.027L209.656 206.49L206.34 207.2Z" fill="#424242"/>
<path d="M218.56 211.332C218.051 209.473 217.223 207.68 214.973 206.787C212.099 205.648 209.494 205.453 205.289 207.172L200.426 209.455L200.5 212.915L206.65 210.024C209.768 208.478 214.414 208.7 215.646 212.124C216.996 215.877 214.876 218.252 209.44 220.887L200.607 225.095L200.681 228.574L210.842 223.788C215.352 221.873 220.459 218.344 218.56 211.332Z" fill="#424242"/>
<path d="M213.03 202.32L167.29 223C164.47 224.33 161.53 224.2 158.83 222.64L101.09 193.32C99.44 192.26 98.95 190.71 99.05 189.63C99.15 188.55 99.4 187.38 102.3 186.54L106.58 184.96L164.5 216.53L205.66 199.71L213.03 202.32Z" fill="#01579B"/>
<path d="M166.74 219.69C165.596 220.227 164.341 220.483 163.079 220.438C161.816 220.392 160.582 220.047 159.48 219.43L103.11 191.03C102.31 190.59 102.07 189.58 102.55 188.8C103.79 186.75 106.07 180.27 102.31 174.89L165.97 205.54L166.74 219.69Z" fill="#F5F5F5"/>
<path d="M210.59 199.98L166.74 219.69C165.29 220.32 162.4 221.44 159.07 219.2C161.7 219.39 163.55 218.3 164.5 216.53C165.43 214.81 165.15 211.99 164.02 210.4C163.33 209.44 161.48 207.91 160.67 207.05L208.1 188.5C212.3 186.77 216.24 189.36 216.87 192.51C217.57 196.07 213.03 198.98 210.59 199.98Z" fill="#94C6D6"/>
<path d="M212.78 186.96L167.51 207.16C164.66 208.29 161.47 208.14 158.74 206.76L100.9 177.38C100.34 177.1 99.51 176.33 99.18 175.28C98.64 173.53 99.32 171.33 101.37 170.63L164.05 202.58L206.97 184.21L212.78 186.96Z" fill="#01579B"/>
<path d="M216.19 189.89L211.26 188.1L201.1 188.69L167.52 203.68C164.67 204.81 161.48 204.66 158.75 203.28L100.9 173.91C99.41 173.15 99.73 170.94 101.37 170.63L143.06 151.98C144.25 151.76 145.47 151.89 146.58 152.36L206.07 180.72C206.07 180.72 215.52 187.19 216.19 189.89Z" fill="#94C6D6"/>
<path d="M200.53 188.98C200.53 188.98 206.79 186.53 211.71 186.75C216.63 186.97 218.34 190.42 218.34 190.42C217.41 186.19 213.04 184.03 213.04 184.03L148.04 151.3C147.59 151.11 145.93 150.72 143.38 151.77C141.32 152.62 134.59 155.77 134.59 155.77L200.53 188.98Z" fill="#616161"/>
<path d="M218.62 191.22C218.15 189.35 216.99 187.35 214.85 186.38C212.03 185.11 208.01 185.44 205.44 186.78L200.53 188.96V192.42L206.74 189.66C212.78 186.97 215.46 191 215.69 191.95C216.65 195.82 214.79 198.06 209.3 200.58L200.38 204.6V208.08L210.64 203.51C215.18 201.69 220.36 198.27 218.62 191.22Z" fill="#424242"/>
<path d="M128.01 190.31L110.74 166.44L113.45 165.23L132.88 191.93L128.01 190.31Z" fill="#01579B"/>
<path d="M150.16 201.31L147.08 198.87L200.53 187.96V189.71L193.04 192.55L150.16 201.31Z" fill="#01579B"/>
<path d="M109.8 146.18L177.31 134.9L206.8 167.37C208.29 168.94 207.48 171.54 205.36 171.97L135.66 186.27L109.8 146.18Z" fill="#BAD8BC"/>
<path d="M205.36 169.17L136.14 183.19L135.92 186.49L205.36 172.25C207.32 171.84 208.14 169.6 207.07 168.02C206.69 168.58 206.11 169.02 205.36 169.17Z" fill="#689F38"/>
<path d="M209.09 184.3C209.82 185.46 209.16 186.99 207.82 187.26L144.1 200.18C140.27 200.97 136.51 198.46 136.17 194.56C135.88 191.26 138.11 188.27 141.36 187.59L202.64 173.83L209.09 184.3Z" fill="#689F38"/>
<path d="M150.59 180.1L125.21 143.78L110.73 147.61C107.38 150.94 108.63 156.41 108.63 156.41C108.63 156.41 130.8 191.99 134.3 196.54C137.8 201.09 142.91 200.38 142.91 200.38L151.54 198.64L150.64 182.54L150.59 180.1Z" fill="#699635"/>
<path d="M150.59 180.34L138.4 182.86C135.07 183.61 134.47 186.74 134.47 186.74L105.04 144.57C105.04 144.57 100.85 149.64 103.63 153.95L134.3 196.54C137.65 201.31 142.91 200.42 142.91 200.42L151.54 198.68L150.65 182.9L150.59 180.34Z" fill="#424242"/>
<path d="M205.25 183C205.56 183.68 205.16 184.47 204.43 184.62L143.5 197.12C139.67 197.91 136.96 195.37 137.1 191.91C137.28 187.54 139.73 185.69 142.97 185.02L204.2 172.51C204.2 172.51 202.12 174.85 203.71 179.23C204.25 180.74 204.83 182.08 205.25 183Z" fill="#B9E4EA"/>
<path d="M140.21 183.7L114.1 146.76" stroke="#424242" stroke-width="2.071" stroke-miterlimit="10"/>
<path d="M142.26 167.95L108.68 151.03L107.32 153.71L146.12 173.48L142.26 167.95Z" fill="#424242"/>
<path d="M203.79 164.03L201.33 161.33L163.5 178.69L142.26 168.18L145.88 173.36L159.95 180.55L170.43 178.94L203.79 164.03Z" fill="#689F38"/>
<path d="M213.02 157.35L167.29 178.03C164.47 179.36 161.53 179.23 158.83 177.67L101.09 148.35C99.44 147.29 98.95 145.74 99.05 144.66C99.15 143.58 99.4 142.41 102.3 141.57L105.01 140.57L164.33 169.68L212.5 149.75L213.02 157.35Z" fill="#C62828"/>
<path d="M166.73 174.72C165.586 175.257 164.331 175.513 163.069 175.468C161.806 175.422 160.572 175.077 159.47 174.46L103.1 146.06C102.3 145.62 102.06 144.61 102.54 143.83C103.78 141.78 106.06 135.3 102.3 129.92L164.54 161.58L166.73 174.72Z" fill="#F5F5F5"/>
<path d="M210.58 155.01L166.73 174.72C165.28 175.35 162.39 176.47 159.06 174.23C161.69 174.42 163.54 173.33 164.49 171.56C165.42 169.84 165.14 167.02 164.01 165.43C163.32 164.47 161.47 162.94 160.66 162.08L208.09 143.53C212.29 141.8 216.23 144.39 216.86 147.54C217.56 151.1 213.02 154.01 210.58 155.01Z" fill="#94C6D6"/>
<path d="M212.78 141.99L167.51 162.19C164.66 163.32 161.47 163.17 158.74 161.79L100.89 132.41C100.29 132.11 99.39 131.34 99.1 130.25C98.67 128.63 99.23 126.5 101.36 125.66L154.37 114.43L212.78 141.99Z" fill="#C62828"/>
<path d="M216.18 144.92L211.25 143.13L201.09 143.72L167.51 158.71C164.66 159.84 161.47 159.69 158.74 158.31L100.89 128.93C99.4 128.17 99.93 126.16 101.36 125.65L143.06 107.01C144.25 106.79 145.47 106.92 146.58 107.39L206.07 135.75C206.07 135.75 215.51 142.21 216.18 144.92Z" fill="#F5B346"/>
<path d="M200.53 144C200.53 144 205.74 142.17 210.66 142.39C215.58 142.61 218.35 145.44 218.35 145.44C217.34 140.92 213.05 139.05 213.05 139.05L148.05 106.32C147.6 106.13 145.94 105.74 143.39 106.79C141.33 107.64 134.6 110.79 134.6 110.79L200.53 144Z" fill="#FF8736"/>
<path d="M206.48 141.86L139.97 108.31L142.17 107.32L209.81 141.22L206.48 141.86Z" fill="#424242"/>
<path d="M218.61 146.25C218.14 144.38 217.35 142.57 215.12 141.63C212.27 140.43 209.67 140.18 205.43 141.81L200.52 143.99V147.45L206.73 144.69C209.88 143.21 214.52 143.53 215.68 146.98C216.95 150.76 214.78 153.09 209.29 155.61L200.37 159.63V163.11L210.63 158.54C215.18 156.72 220.36 153.3 218.61 146.25Z" fill="#424242"/>
<path d="M277.03 102.32L231.29 123C228.47 124.33 225.53 124.2 222.83 122.64L165.09 93.32C163.44 92.26 162.95 90.71 163.05 89.63C163.15 88.55 163.4 87.38 166.3 86.54L170.58 84.96L228.5 116.53L269.66 99.71L277.03 102.32Z" fill="#01579B"/>
<path d="M230.74 119.69C229.596 120.227 228.341 120.483 227.079 120.438C225.816 120.392 224.582 120.047 223.48 119.43L167.11 91.03C166.31 90.59 166.07 89.58 166.55 88.8C167.79 86.75 170.07 80.27 166.31 74.89L229.97 105.54L230.74 119.69Z" fill="#F5F5F5"/>
<path d="M274.59 99.98L230.74 119.69C229.29 120.32 226.4 121.44 223.07 119.2C225.7 119.39 227.55 118.3 228.5 116.53C229.43 114.81 229.15 111.99 228.02 110.4C227.33 109.44 225.48 107.91 224.67 107.05L272.1 88.5C276.3 86.77 280.24 89.36 280.87 92.51C281.57 96.07 277.03 98.98 274.59 99.98Z" fill="#94C6D6"/>
<path d="M276.78 86.96L231.51 107.16C228.66 108.29 225.47 108.14 222.74 106.76L164.9 77.38C164.34 77.1 163.51 76.33 163.18 75.28C162.64 73.53 163.32 71.33 165.37 70.63L228.05 102.58L270.97 84.21L276.78 86.96Z" fill="#01579B"/>
<path d="M280.19 89.89L275.26 88.1L265.1 88.69L231.52 103.68C228.67 104.81 225.48 104.66 222.75 103.28L164.9 73.91C163.41 73.15 163.73 70.94 165.37 70.63L207.06 51.98C208.25 51.76 209.47 51.89 210.58 52.36L270.07 80.72C270.07 80.72 279.52 87.19 280.19 89.89Z" fill="#94C6D6"/>
<path d="M264.53 88.98C264.53 88.98 270.79 86.53 275.71 86.75C280.63 86.97 282.34 90.42 282.34 90.42C281.41 86.19 277.04 84.03 277.04 84.03L212.04 51.3C211.59 51.11 209.93 50.72 207.38 51.77C205.32 52.62 198.59 55.77 198.59 55.77L264.53 88.98Z" fill="#616161"/>
<path d="M282.62 91.22C282.15 89.35 280.99 87.35 278.85 86.38C276.03 85.11 272.01 85.44 269.44 86.78L264.53 88.96V92.42L270.74 89.66C276.78 86.97 279.46 91 279.69 91.95C280.65 95.82 278.79 98.06 273.3 100.58L264.38 104.6V108.08L274.64 103.51C279.18 101.69 284.36 98.27 282.62 91.22Z" fill="#424242"/>
<path d="M192.01 90.31L174.74 66.44L177.45 65.23L196.88 91.93L192.01 90.31Z" fill="#01579B"/>
<path d="M214.16 101.31L211.08 98.87L264.53 87.96V89.71L257.04 92.55L214.16 101.31Z" fill="#01579B"/>
<path d="M173.8 46.18L241.31 34.9L270.8 67.37C272.29 68.94 271.48 71.54 269.36 71.97L199.66 86.27L173.8 46.18Z" fill="#BAD8BC"/>
<path d="M269.36 69.17L200.14 83.19L199.92 86.49L269.36 72.25C271.32 71.84 272.14 69.6 271.07 68.02C270.69 68.58 270.11 69.02 269.36 69.17Z" fill="#689F38"/>
<path d="M273.09 84.3C273.82 85.46 273.16 86.99 271.82 87.26L208.1 100.18C204.27 100.97 200.51 98.46 200.17 94.56C199.88 91.26 202.11 88.27 205.36 87.59L266.64 73.83L273.09 84.3Z" fill="#689F38"/>
<path d="M214.59 80.1L189.21 43.78L174.73 47.61C171.38 50.94 172.63 56.41 172.63 56.41C172.63 56.41 194.8 91.99 198.3 96.54C201.8 101.09 206.91 100.38 206.91 100.38L215.54 98.64L214.64 82.54L214.59 80.1Z" fill="#699635"/>
<path d="M214.59 80.34L202.4 82.86C199.07 83.61 198.47 86.74 198.47 86.74L169.04 44.57C169.04 44.57 164.85 49.64 167.63 53.95L198.3 96.54C201.65 101.31 206.91 100.42 206.91 100.42L215.54 98.68L214.65 82.9L214.59 80.34Z" fill="#424242"/>
<path d="M269.25 83C269.56 83.68 269.16 84.47 268.43 84.62L207.5 97.12C203.67 97.91 200.96 95.37 201.1 91.91C201.28 87.54 203.73 85.69 206.97 85.02L268.2 72.51C268.2 72.51 266.12 74.85 267.71 79.23C268.25 80.74 268.83 82.08 269.25 83Z" fill="#B9E4EA"/>
<path d="M204.21 83.7L178.1 46.76" stroke="#424242" stroke-width="2.071" stroke-miterlimit="10"/>
<path d="M206.26 67.95L172.68 51.03L171.32 53.71L210.12 73.48L206.26 67.95Z" fill="#424242"/>
<path d="M267.79 64.03L265.33 61.33L227.5 78.69L206.26 68.18L209.88 73.36L223.95 80.55L234.43 78.94L267.79 64.03Z" fill="#689F38"/>
<path d="M277.02 57.35L231.29 78.03C228.47 79.36 225.53 79.23 222.83 77.67L165.09 48.35C163.44 47.29 162.95 45.74 163.05 44.66C163.15 43.58 163.4 42.41 166.3 41.57L169.01 40.57L228.33 69.68L276.5 49.75L277.02 57.35Z" fill="#C62828"/>
<path d="M230.73 74.72C229.586 75.2566 228.331 75.5128 227.069 75.4676C225.806 75.4224 224.572 75.077 223.47 74.46L167.1 46.06C166.3 45.62 166.06 44.61 166.54 43.83C167.78 41.78 170.06 35.3 166.3 29.92L228.54 61.58L230.73 74.72Z" fill="#F5F5F5"/>
<path d="M274.58 55.01L230.73 74.72C229.28 75.35 226.39 76.47 223.06 74.23C225.69 74.42 227.54 73.33 228.49 71.56C229.42 69.84 229.14 67.02 228.01 65.43C227.32 64.47 225.47 62.94 224.66 62.08L272.09 43.53C276.29 41.8 280.23 44.39 280.86 47.54C281.56 51.1 277.02 54.01 274.58 55.01Z" fill="#94C6D6"/>
<path d="M276.78 41.99L231.51 62.19C228.66 63.32 225.47 63.17 222.74 61.79L164.89 32.41C164.29 32.11 163.39 31.34 163.1 30.25C162.67 28.63 163.23 26.5 165.36 25.66L218.37 14.43L276.78 41.99Z" fill="#C62828"/>
<path d="M280.18 44.92L275.25 43.13L265.09 43.72L231.51 58.71C228.66 59.84 225.47 59.69 222.74 58.31L164.89 28.93C163.4 28.17 163.93 26.16 165.36 25.65L207.06 7.01C208.25 6.79 209.47 6.92 210.58 7.39L270.07 35.75C270.07 35.75 279.51 42.21 280.18 44.92Z" fill="#F5B346"/>
<path d="M264.53 44C264.53 44 269.74 42.17 274.66 42.39C279.58 42.61 282.35 45.44 282.35 45.44C281.34 40.92 277.05 39.05 277.05 39.05L212.05 6.32C211.6 6.13 209.94 5.74 207.39 6.79C205.33 7.64 198.6 10.79 198.6 10.79L264.53 44Z" fill="#FF8736"/>
<path d="M270.48 41.86L203.97 8.30999L206.17 7.31999L273.81 41.22L270.48 41.86Z" fill="#424242"/>
<path d="M282.61 46.25C282.14 44.38 281.35 42.57 279.12 41.63C276.27 40.43 273.67 40.18 269.43 41.81L264.52 43.99V47.45L270.73 44.69C273.88 43.21 278.52 43.53 279.68 46.98C280.95 50.76 278.78 53.09 273.29 55.61L264.37 59.63V63.11L274.63 58.54C279.18 56.72 284.36 53.3 282.61 46.25Z" fill="#424242"/>
<path d="M118.03 255.32L72.29 276C69.47 277.33 66.53 277.2 63.83 275.64L6.09 246.32C4.44 245.26 3.95 243.71 4.05 242.63C4.15 241.55 4.4 240.38 7.3 239.54L11.58 237.96L69.5 269.53L110.66 252.71L118.03 255.32Z" fill="#01579B"/>
<path d="M71.74 272.69C70.5962 273.227 69.3411 273.483 68.0786 273.438C66.816 273.392 65.5824 273.047 64.48 272.43L8.11 244.03C7.31 243.59 7.07 242.58 7.55 241.8C8.79 239.75 11.07 233.27 7.31 227.89L70.97 258.54L71.74 272.69Z" fill="#F5F5F5"/>
<path d="M115.59 252.98L71.74 272.69C70.29 273.32 67.4 274.44 64.07 272.2C66.7 272.39 68.55 271.3 69.5 269.53C70.43 267.81 70.15 264.99 69.02 263.4C68.33 262.44 66.48 260.91 65.67 260.05L113.1 241.5C117.3 239.77 121.24 242.36 121.87 245.51C122.57 249.07 118.03 251.98 115.59 252.98Z" fill="#94C6D6"/>
<path d="M117.78 239.96L72.51 260.16C69.66 261.29 66.47 261.14 63.74 259.76L5.9 230.38C5.34 230.1 4.51 229.33 4.18 228.28C3.64 226.53 4.32 224.33 6.37 223.63L69.05 255.58L111.97 237.21L117.78 239.96Z" fill="#01579B"/>
<path d="M121.19 242.89L116.26 241.1L106.1 241.69L72.52 256.68C69.67 257.81 66.48 257.66 63.75 256.28L5.9 226.91C4.41 226.15 4.73 223.94 6.37 223.63L48.06 204.98C49.25 204.76 50.47 204.89 51.58 205.36L111.07 233.72C111.07 233.72 120.52 240.19 121.19 242.89Z" fill="#94C6D6"/>
<path d="M105.53 241.98C105.53 241.98 111.79 239.53 116.71 239.75C121.63 239.97 123.34 243.42 123.34 243.42C122.41 239.19 118.04 237.03 118.04 237.03L53.04 204.3C52.59 204.11 50.93 203.72 48.38 204.77C46.32 205.62 39.59 208.77 39.59 208.77L105.53 241.98Z" fill="#616161"/>
<path d="M123.62 244.22C123.15 242.35 121.99 240.35 119.85 239.38C117.03 238.11 113.01 238.44 110.44 239.78L105.53 241.96V245.42L111.74 242.66C117.78 239.97 120.46 244 120.69 244.95C121.65 248.82 119.79 251.06 114.3 253.58L105.38 257.6V261.08L115.64 256.51C120.18 254.69 125.36 251.27 123.62 244.22Z" fill="#424242"/>
<path d="M33.01 243.31L15.74 219.44L18.45 218.23L37.88 244.93L33.01 243.31Z" fill="#01579B"/>
<path d="M55.16 254.31L52.08 251.87L105.53 240.96V242.71L98.04 245.55L55.16 254.31Z" fill="#01579B"/>
<path d="M14.8 199.18L82.31 187.9L111.8 220.37C113.29 221.94 112.48 224.54 110.36 224.97L40.66 239.27L14.8 199.18Z" fill="#BAD8BC"/>
<path d="M110.36 222.17L41.14 236.19L40.92 239.49L110.36 225.25C112.32 224.84 113.14 222.6 112.07 221.02C111.69 221.58 111.11 222.02 110.36 222.17Z" fill="#689F38"/>
<path d="M114.09 237.3C114.82 238.46 114.16 239.99 112.82 240.26L49.1 253.18C45.27 253.97 41.51 251.46 41.17 247.56C40.88 244.26 43.11 241.27 46.36 240.59L107.64 226.83L114.09 237.3Z" fill="#689F38"/>
<path d="M55.59 233.1L30.21 196.78L15.73 200.61C12.38 203.94 13.63 209.41 13.63 209.41C13.63 209.41 35.8 244.99 39.3 249.54C42.8 254.09 47.91 253.38 47.91 253.38L56.54 251.64L55.64 235.54L55.59 233.1Z" fill="#699635"/>
<path d="M55.59 233.34L43.4 235.86C40.07 236.61 39.47 239.74 39.47 239.74L10.04 197.57C10.04 197.57 5.85 202.64 8.63 206.95L39.3 249.54C42.65 254.31 47.91 253.42 47.91 253.42L56.54 251.68L55.65 235.9L55.59 233.34Z" fill="#424242"/>
<path d="M110.25 236C110.56 236.68 110.16 237.47 109.43 237.62L48.5 250.12C44.67 250.91 41.96 248.37 42.1 244.91C42.28 240.54 44.73 238.69 47.97 238.02L109.2 225.51C109.2 225.51 107.12 227.85 108.71 232.23C109.25 233.74 109.83 235.08 110.25 236Z" fill="#B9E4EA"/>
<path d="M45.21 236.7L19.1 199.76" stroke="#424242" stroke-width="2.071" stroke-miterlimit="10"/>
<path d="M47.26 220.95L13.68 204.03L12.32 206.71L51.12 226.48L47.26 220.95Z" fill="#424242"/>
<path d="M108.79 217.03L106.33 214.33L68.5 231.69L47.26 221.18L50.88 226.36L64.95 233.55L75.43 231.94L108.79 217.03Z" fill="#689F38"/>
<path d="M118.02 210.35L72.29 231.03C69.47 232.36 66.53 232.23 63.83 230.67L6.09001 201.35C4.44001 200.29 3.95001 198.74 4.05001 197.66C4.15001 196.58 4.40001 195.41 7.30001 194.57L10.01 193.57L69.33 222.68L117.5 202.75L118.02 210.35Z" fill="#C62828"/>
<path d="M71.73 227.72C70.5863 228.257 69.3311 228.513 68.0686 228.468C66.806 228.422 65.5724 228.077 64.47 227.46L8.1 199.06C7.3 198.62 7.06 197.61 7.54 196.83C8.78 194.78 11.06 188.3 7.3 182.92L69.54 214.58L71.73 227.72Z" fill="#F5F5F5"/>
<path d="M115.58 208.01L71.73 227.72C70.28 228.35 67.39 229.47 64.06 227.23C66.69 227.42 68.54 226.33 69.49 224.56C70.42 222.84 70.14 220.02 69.01 218.43C68.32 217.47 66.47 215.94 65.66 215.08L113.09 196.53C117.29 194.8 121.23 197.39 121.86 200.54C122.56 204.1 118.02 207.01 115.58 208.01Z" fill="#94C6D6"/>
<path d="M117.78 194.99L72.51 215.19C69.66 216.32 66.47 216.17 63.74 214.79L5.89 185.41C5.29 185.11 4.39 184.34 4.1 183.25C3.67 181.63 4.23 179.5 6.36 178.66L59.37 167.43L117.78 194.99Z" fill="#C62828"/>
<path d="M121.18 197.92L116.25 196.13L106.09 196.72L72.51 211.71C69.66 212.84 66.47 212.69 63.74 211.31L5.89 181.93C4.4 181.17 4.93 179.16 6.36 178.65L48.06 160.01C49.25 159.79 50.47 159.92 51.58 160.39L111.07 188.75C111.07 188.75 120.51 195.21 121.18 197.92Z" fill="#F5B346"/>
<path d="M105.53 197C105.53 197 110.74 195.17 115.66 195.39C120.58 195.61 123.35 198.44 123.35 198.44C122.34 193.92 118.05 192.05 118.05 192.05L53.05 159.32C52.6 159.13 50.94 158.74 48.39 159.79C46.33 160.64 39.6 163.79 39.6 163.79L105.53 197Z" fill="#FF8736"/>
<path d="M111.48 194.86L44.97 161.31L47.17 160.32L114.81 194.22L111.48 194.86Z" fill="#424242"/>
<path d="M123.61 199.25C123.14 197.38 122.35 195.57 120.12 194.63C117.27 193.43 114.67 193.18 110.43 194.81L105.52 196.99V200.45L111.73 197.69C114.88 196.21 119.52 196.53 120.68 199.98C121.95 203.76 119.78 206.09 114.29 208.61L105.37 212.63V216.11L115.63 211.54C120.18 209.72 125.36 206.3 123.61 199.25Z" fill="#424242"/>
</svg>
