<svg width="214" height="197" viewBox="0 0 214 197" fill="none" xmlns="http://www.w3.org/2000/svg">
<path d="M202.03 170.32L156.29 191C153.47 192.33 150.53 192.2 147.83 190.64L90.09 161.32C88.44 160.26 87.95 158.71 88.05 157.63C88.15 156.55 88.4 155.38 91.3 154.54L95.58 152.96L153.5 184.53L194.66 167.71L202.03 170.32V170.32Z" fill="#01579B"/>
<path d="M155.74 187.69C154.596 188.227 153.341 188.483 152.079 188.438C150.816 188.392 149.582 188.047 148.48 187.43L92.11 159.03C91.31 158.59 91.07 157.58 91.55 156.8C92.79 154.75 95.07 148.27 91.31 142.89L154.97 173.54L155.74 187.69Z" fill="#F5F5F5"/>
<path d="M199.59 167.98L155.74 187.69C154.29 188.32 151.4 189.44 148.07 187.2C150.7 187.39 152.55 186.3 153.5 184.53C154.43 182.81 154.15 179.99 153.02 178.4C152.33 177.44 150.48 175.91 149.67 175.05L197.1 156.5C201.3 154.77 205.24 157.36 205.87 160.51C206.57 164.07 202.03 166.98 199.59 167.98V167.98Z" fill="#94C6D6"/>
<path d="M201.78 154.96L156.51 175.16C153.66 176.29 150.47 176.14 147.74 174.76L89.9 145.38C89.34 145.1 88.51 144.33 88.18 143.28C87.64 141.53 88.32 139.33 90.37 138.63L153.05 170.58L195.97 152.21L201.78 154.96Z" fill="#01579B"/>
<path d="M205.19 157.89L200.26 156.1L190.1 156.69L156.52 171.68C153.67 172.81 150.48 172.66 147.75 171.28L89.9 141.91C88.41 141.15 88.73 138.94 90.37 138.63L132.06 119.98C133.25 119.76 134.47 119.89 135.58 120.36L195.07 148.72C195.07 148.72 204.52 155.19 205.19 157.89Z" fill="#94C6D6"/>
<path d="M189.53 156.98C189.53 156.98 195.79 154.53 200.71 154.75C205.63 154.97 207.34 158.42 207.34 158.42C206.41 154.19 202.04 152.03 202.04 152.03L137.04 119.3C136.59 119.11 134.93 118.72 132.38 119.77C130.32 120.62 123.59 123.77 123.59 123.77L189.53 156.98Z" fill="#616161"/>
<path d="M207.62 159.22C207.15 157.35 205.99 155.35 203.85 154.38C201.03 153.11 197.01 153.44 194.44 154.78L189.53 156.96V160.42L195.74 157.66C201.78 154.97 204.46 159 204.69 159.95C205.65 163.82 203.79 166.06 198.3 168.58L189.38 172.6V176.08L199.64 171.51C204.18 169.69 209.36 166.27 207.62 159.22V159.22Z" fill="#424242"/>
<path d="M117.01 158.31L99.74 134.44L102.45 133.23L121.88 159.93L117.01 158.31Z" fill="#01579B"/>
<path d="M139.16 169.31L136.08 166.87L189.53 155.96V157.71L182.04 160.55L139.16 169.31Z" fill="#01579B"/>
<path d="M98.8 114.18L166.31 102.9L195.8 135.37C197.29 136.94 196.48 139.54 194.36 139.97L124.66 154.27L98.8 114.18Z" fill="#BAD8BC"/>
<path d="M194.36 137.17L125.14 151.19L124.92 154.49L194.36 140.25C196.32 139.84 197.14 137.6 196.07 136.02C195.69 136.58 195.11 137.02 194.36 137.17Z" fill="#689F38"/>
<path d="M198.09 152.3C198.82 153.46 198.16 154.99 196.82 155.26L133.1 168.18C129.27 168.97 125.51 166.46 125.17 162.56C124.88 159.26 127.11 156.27 130.36 155.59L191.64 141.83L198.09 152.3Z" fill="#689F38"/>
<path d="M139.59 148.1L114.21 111.78L99.73 115.61C96.38 118.94 97.63 124.41 97.63 124.41C97.63 124.41 119.8 159.99 123.3 164.54C126.8 169.09 131.91 168.38 131.91 168.38L140.54 166.64L139.64 150.54L139.59 148.1V148.1Z" fill="#699635"/>
<path d="M139.59 148.34L127.4 150.86C124.07 151.61 123.47 154.74 123.47 154.74L94.04 112.57C94.04 112.57 89.85 117.64 92.63 121.95L123.3 164.54C126.65 169.31 131.91 168.42 131.91 168.42L140.54 166.68L139.65 150.9L139.59 148.34V148.34Z" fill="#424242"/>
<path d="M194.25 151C194.56 151.68 194.16 152.47 193.43 152.62L132.5 165.12C128.67 165.91 125.96 163.37 126.1 159.91C126.28 155.54 128.73 153.69 131.97 153.02L193.2 140.51C193.2 140.51 191.12 142.85 192.71 147.23C193.25 148.74 193.83 150.08 194.25 151Z" fill="#B9E4EA"/>
<path d="M129.21 151.7L103.1 114.76" stroke="#424242" stroke-width="2.071" stroke-miterlimit="10"/>
<path d="M131.26 135.95L97.68 119.03L96.32 121.71L135.12 141.48L131.26 135.95Z" fill="#424242"/>
<path d="M192.79 132.03L190.33 129.33L152.5 146.69L131.26 136.18L134.88 141.36L148.95 148.55L159.43 146.94L192.79 132.03Z" fill="#689F38"/>
<path d="M202.02 125.35L156.29 146.03C153.47 147.36 150.53 147.23 147.83 145.67L90.09 116.35C88.44 115.29 87.95 113.74 88.05 112.66C88.15 111.58 88.4 110.41 91.3 109.57L94.01 108.57L153.33 137.68L201.5 117.75L202.02 125.35V125.35Z" fill="#C62828"/>
<path d="M155.73 142.72C154.586 143.256 153.331 143.513 152.069 143.468C150.806 143.422 149.572 143.077 148.47 142.46L92.1 114.06C91.3 113.62 91.06 112.61 91.54 111.83C92.78 109.78 95.06 103.3 91.3 97.9199L153.54 129.58L155.73 142.72Z" fill="#F5F5F5"/>
<path d="M199.58 123.01L155.73 142.72C154.28 143.35 151.39 144.47 148.06 142.23C150.69 142.42 152.54 141.33 153.49 139.56C154.42 137.84 154.14 135.02 153.01 133.43C152.32 132.47 150.47 130.94 149.66 130.08L197.09 111.53C201.29 109.8 205.23 112.39 205.86 115.54C206.56 119.1 202.02 122.01 199.58 123.01Z" fill="#94C6D6"/>
<path d="M201.78 109.99L156.51 130.19C153.66 131.32 150.47 131.17 147.74 129.79L89.89 100.41C89.29 100.11 88.39 99.3399 88.1 98.2499C87.67 96.6299 88.23 94.4999 90.36 93.6599L143.37 82.4299L201.78 109.99V109.99Z" fill="#C62828"/>
<path d="M205.18 112.92L200.25 111.13L190.09 111.72L156.51 126.71C153.66 127.84 150.47 127.69 147.74 126.31L89.89 96.9299C88.4 96.1699 88.93 94.1599 90.36 93.6499L132.06 75.0099C133.25 74.7899 134.47 74.9199 135.58 75.3899L195.07 103.75C195.07 103.75 204.51 110.21 205.18 112.92Z" fill="#F5B346"/>
<path d="M189.53 112C189.53 112 194.74 110.17 199.66 110.39C204.58 110.61 207.35 113.44 207.35 113.44C206.34 108.92 202.05 107.05 202.05 107.05L137.05 74.32C136.6 74.13 134.94 73.74 132.39 74.79C130.33 75.64 123.6 78.79 123.6 78.79L189.53 112Z" fill="#FF8736"/>
<path d="M195.48 109.86L128.97 76.3099L131.17 75.3199L198.81 109.22L195.48 109.86Z" fill="#424242"/>
<path d="M207.61 114.25C207.14 112.38 206.35 110.57 204.12 109.63C201.27 108.43 198.67 108.18 194.43 109.81L189.52 111.99V115.45L195.73 112.69C198.88 111.21 203.52 111.53 204.68 114.98C205.95 118.76 203.78 121.09 198.29 123.61L189.37 127.63V131.11L199.63 126.54C204.18 124.72 209.36 121.3 207.61 114.25V114.25Z" fill="#424242"/>
<path d="M204.03 102.32L158.29 123C155.47 124.33 152.53 124.2 149.83 122.64L92.09 93.32C90.44 92.26 89.95 90.71 90.05 89.63C90.15 88.55 90.4 87.38 93.3 86.54L97.58 84.96L155.5 116.53L196.66 99.71L204.03 102.32V102.32Z" fill="#01579B"/>
<path d="M157.74 119.69C156.596 120.227 155.341 120.483 154.079 120.438C152.816 120.392 151.582 120.047 150.48 119.43L94.11 91.03C93.31 90.59 93.07 89.58 93.55 88.8C94.79 86.75 97.07 80.27 93.31 74.89L156.97 105.54L157.74 119.69Z" fill="#F5F5F5"/>
<path d="M201.59 99.98L157.74 119.69C156.29 120.32 153.4 121.44 150.07 119.2C152.7 119.39 154.55 118.3 155.5 116.53C156.43 114.81 156.15 111.99 155.02 110.4C154.33 109.44 152.48 107.91 151.67 107.05L199.1 88.5C203.3 86.77 207.24 89.36 207.87 92.51C208.57 96.07 204.03 98.98 201.59 99.98V99.98Z" fill="#94C6D6"/>
<path d="M203.78 86.96L158.51 107.16C155.66 108.29 152.47 108.14 149.74 106.76L91.9 77.38C91.34 77.1 90.51 76.33 90.18 75.28C89.64 73.53 90.32 71.33 92.37 70.63L155.05 102.58L197.97 84.21L203.78 86.96Z" fill="#01579B"/>
<path d="M207.19 89.89L202.26 88.1L192.1 88.69L158.52 103.68C155.67 104.81 152.48 104.66 149.75 103.28L91.9 73.91C90.41 73.15 90.73 70.94 92.37 70.63L134.06 51.98C135.25 51.76 136.47 51.89 137.58 52.36L197.07 80.72C197.07 80.72 206.52 87.19 207.19 89.89Z" fill="#94C6D6"/>
<path d="M191.53 88.98C191.53 88.98 197.79 86.53 202.71 86.75C207.63 86.97 209.34 90.4199 209.34 90.4199C208.41 86.1899 204.04 84.0299 204.04 84.0299L139.04 51.2999C138.59 51.1099 136.93 50.7199 134.38 51.7699C132.32 52.6199 125.59 55.7699 125.59 55.7699L191.53 88.98Z" fill="#616161"/>
<path d="M209.62 91.22C209.15 89.35 207.99 87.35 205.85 86.38C203.03 85.11 199.01 85.44 196.44 86.78L191.53 88.96V92.42L197.74 89.66C203.78 86.97 206.46 91 206.69 91.95C207.65 95.82 205.79 98.06 200.3 100.58L191.38 104.6V108.08L201.64 103.51C206.18 101.69 211.36 98.27 209.62 91.22V91.22Z" fill="#424242"/>
<path d="M119.01 90.31L101.74 66.44L104.45 65.23L123.88 91.93L119.01 90.31Z" fill="#01579B"/>
<path d="M141.16 101.31L138.08 98.87L191.53 87.96V89.71L184.04 92.55L141.16 101.31Z" fill="#01579B"/>
<path d="M100.8 46.18L168.31 34.9L197.8 67.37C199.29 68.94 198.48 71.54 196.36 71.97L126.66 86.27L100.8 46.18Z" fill="#BAD8BC"/>
<path d="M196.36 69.17L127.14 83.19L126.92 86.49L196.36 72.25C198.32 71.84 199.14 69.6 198.07 68.02C197.69 68.58 197.11 69.02 196.36 69.17Z" fill="#689F38"/>
<path d="M200.09 84.3001C200.82 85.4601 200.16 86.9901 198.82 87.2601L135.1 100.18C131.27 100.97 127.51 98.4601 127.17 94.5601C126.88 91.2601 129.11 88.2701 132.36 87.5901L193.64 73.8301L200.09 84.3001Z" fill="#689F38"/>
<path d="M141.59 80.1L116.21 43.78L101.73 47.61C98.38 50.94 99.63 56.41 99.63 56.41C99.63 56.41 121.8 91.99 125.3 96.54C128.8 101.09 133.91 100.38 133.91 100.38L142.54 98.64L141.64 82.54L141.59 80.1V80.1Z" fill="#699635"/>
<path d="M141.59 80.3401L129.4 82.8601C126.07 83.6101 125.47 86.7401 125.47 86.7401L96.04 44.5701C96.04 44.5701 91.85 49.6401 94.63 53.9501L125.3 96.5401C128.65 101.31 133.91 100.42 133.91 100.42L142.54 98.6801L141.65 82.9001L141.59 80.3401V80.3401Z" fill="#424242"/>
<path d="M196.25 83C196.56 83.68 196.16 84.47 195.43 84.62L134.5 97.12C130.67 97.91 127.96 95.37 128.1 91.91C128.28 87.54 130.73 85.69 133.97 85.02L195.2 72.51C195.2 72.51 193.12 74.85 194.71 79.23C195.25 80.74 195.83 82.08 196.25 83Z" fill="#B9E4EA"/>
<path d="M131.21 83.7L105.1 46.76" stroke="#424242" stroke-width="2.071" stroke-miterlimit="10"/>
<path d="M133.26 67.95L99.68 51.03L98.32 53.71L137.12 73.48L133.26 67.95Z" fill="#424242"/>
<path d="M194.79 64.03L192.33 61.33L154.5 78.69L133.26 68.18L136.88 73.36L150.95 80.55L161.43 78.94L194.79 64.03Z" fill="#689F38"/>
<path d="M204.02 57.3499L158.29 78.0299C155.47 79.3599 152.53 79.2299 149.83 77.6699L92.09 48.3499C90.44 47.2899 89.95 45.7399 90.05 44.6599C90.15 43.5799 90.4 42.4099 93.3 41.5699L96.01 40.5699L155.33 69.6799L203.5 49.7499L204.02 57.3499V57.3499Z" fill="#C62828"/>
<path d="M157.73 74.7199C156.586 75.2565 155.331 75.5128 154.069 75.4676C152.806 75.4223 151.572 75.0769 150.47 74.4599L94.1 46.0599C93.3 45.6199 93.06 44.6099 93.54 43.8299C94.78 41.7799 97.06 35.2999 93.3 29.9199L155.54 61.5799L157.73 74.7199Z" fill="#F5F5F5"/>
<path d="M201.58 55.0099L157.73 74.7199C156.28 75.3499 153.39 76.4699 150.06 74.2299C152.69 74.4199 154.54 73.3299 155.49 71.5599C156.42 69.8399 156.14 67.0199 155.01 65.4299C154.32 64.4699 152.47 62.9399 151.66 62.0799L199.09 43.5299C203.29 41.7999 207.23 44.3899 207.86 47.5399C208.56 51.0999 204.02 54.0099 201.58 55.0099Z" fill="#94C6D6"/>
<path d="M203.78 41.9899L158.51 62.1899C155.66 63.3199 152.47 63.1699 149.74 61.7899L91.89 32.4099C91.29 32.1099 90.39 31.3399 90.1 30.2499C89.67 28.6299 90.23 26.4999 92.36 25.6599L145.37 14.4299L203.78 41.9899V41.9899Z" fill="#C62828"/>
<path d="M207.18 44.9199L202.25 43.1299L192.09 43.7199L158.51 58.7099C155.66 59.8399 152.47 59.6899 149.74 58.3099L91.89 28.9299C90.4 28.1699 90.93 26.1599 92.36 25.6499L134.06 7.00991C135.25 6.78991 136.47 6.91991 137.58 7.38991L197.07 35.7499C197.07 35.7499 206.51 42.2099 207.18 44.9199Z" fill="#F5B346"/>
<path d="M191.53 44C191.53 44 196.74 42.17 201.66 42.39C206.58 42.61 209.35 45.44 209.35 45.44C208.34 40.92 204.05 39.05 204.05 39.05L139.05 6.31997C138.6 6.12997 136.94 5.73997 134.39 6.78997C132.33 7.63997 125.6 10.79 125.6 10.79L191.53 44Z" fill="#FF8736"/>
<path d="M197.48 41.8599L130.97 8.30995L133.17 7.31995L200.81 41.2199L197.48 41.8599Z" fill="#424242"/>
<path d="M209.61 46.25C209.14 44.38 208.35 42.57 206.12 41.63C203.27 40.43 200.67 40.18 196.43 41.81L191.52 43.99V47.45L197.73 44.69C200.88 43.21 205.52 43.53 206.68 46.98C207.95 50.76 205.78 53.09 200.29 55.61L191.37 59.63V63.11L201.63 58.54C206.18 56.72 211.36 53.3 209.61 46.25V46.25Z" fill="#424242"/>
<path d="M118.03 171.32L72.29 192C69.47 193.33 66.53 193.2 63.83 191.64L6.09001 162.32C4.44001 161.26 3.95001 159.71 4.05001 158.63C4.15001 157.55 4.40001 156.38 7.30001 155.54L11.58 153.96L69.5 185.53L110.66 168.71L118.03 171.32V171.32Z" fill="#01579B"/>
<path d="M71.74 188.69C70.5962 189.227 69.3411 189.483 68.0786 189.438C66.816 189.392 65.5824 189.047 64.48 188.43L8.10999 160.03C7.30999 159.59 7.06999 158.58 7.54999 157.8C8.78999 155.75 11.07 149.27 7.30999 143.89L70.97 174.54L71.74 188.69Z" fill="#F5F5F5"/>
<path d="M115.59 168.98L71.74 188.69C70.29 189.32 67.4 190.44 64.07 188.2C66.7 188.39 68.55 187.3 69.5 185.53C70.43 183.81 70.15 180.99 69.02 179.4C68.33 178.44 66.48 176.91 65.67 176.05L113.1 157.5C117.3 155.77 121.24 158.36 121.87 161.51C122.57 165.07 118.03 167.98 115.59 168.98V168.98Z" fill="#94C6D6"/>
<path d="M117.78 155.96L72.51 176.16C69.66 177.29 66.47 177.14 63.74 175.76L5.89999 146.38C5.33999 146.1 4.50999 145.33 4.17999 144.28C3.63999 142.53 4.31999 140.33 6.36999 139.63L69.05 171.58L111.97 153.21L117.78 155.96Z" fill="#01579B"/>
<path d="M121.19 158.89L116.26 157.1L106.1 157.69L72.52 172.68C69.67 173.81 66.48 173.66 63.75 172.28L5.90001 142.91C4.41001 142.15 4.73001 139.94 6.37001 139.63L48.06 120.98C49.25 120.76 50.47 120.89 51.58 121.36L111.07 149.72C111.07 149.72 120.52 156.19 121.19 158.89Z" fill="#94C6D6"/>
<path d="M105.53 157.98C105.53 157.98 111.79 155.53 116.71 155.75C121.63 155.97 123.34 159.42 123.34 159.42C122.41 155.19 118.04 153.03 118.04 153.03L53.04 120.3C52.59 120.11 50.93 119.72 48.38 120.77C46.32 121.62 39.59 124.77 39.59 124.77L105.53 157.98Z" fill="#616161"/>
<path d="M123.62 160.22C123.15 158.35 121.99 156.35 119.85 155.38C117.03 154.11 113.01 154.44 110.44 155.78L105.53 157.96V161.42L111.74 158.66C117.78 155.97 120.46 160 120.69 160.95C121.65 164.82 119.79 167.06 114.3 169.58L105.38 173.6V177.08L115.64 172.51C120.18 170.69 125.36 167.27 123.62 160.22V160.22Z" fill="#424242"/>
<path d="M33.01 159.31L15.74 135.44L18.45 134.23L37.88 160.93L33.01 159.31Z" fill="#01579B"/>
<path d="M55.16 170.31L52.08 167.87L105.53 156.96V158.71L98.04 161.55L55.16 170.31Z" fill="#01579B"/>
<path d="M14.8 115.18L82.31 103.9L111.8 136.37C113.29 137.94 112.48 140.54 110.36 140.97L40.66 155.27L14.8 115.18Z" fill="#BAD8BC"/>
<path d="M110.36 138.17L41.14 152.19L40.92 155.49L110.36 141.25C112.32 140.84 113.14 138.6 112.07 137.02C111.69 137.58 111.11 138.02 110.36 138.17Z" fill="#689F38"/>
<path d="M114.09 153.3C114.82 154.46 114.16 155.99 112.82 156.26L49.1 169.18C45.27 169.97 41.51 167.46 41.17 163.56C40.88 160.26 43.11 157.27 46.36 156.59L107.64 142.83L114.09 153.3Z" fill="#689F38"/>
<path d="M55.59 149.1L30.21 112.78L15.73 116.61C12.38 119.94 13.63 125.41 13.63 125.41C13.63 125.41 35.8 160.99 39.3 165.54C42.8 170.09 47.91 169.38 47.91 169.38L56.54 167.64L55.64 151.54L55.59 149.1V149.1Z" fill="#699635"/>
<path d="M55.59 149.34L43.4 151.86C40.07 152.61 39.47 155.74 39.47 155.74L10.04 113.57C10.04 113.57 5.85 118.64 8.63 122.95L39.3 165.54C42.65 170.31 47.91 169.42 47.91 169.42L56.54 167.68L55.65 151.9L55.59 149.34V149.34Z" fill="#424242"/>
<path d="M110.25 152C110.56 152.68 110.16 153.47 109.43 153.62L48.5 166.12C44.67 166.91 41.96 164.37 42.1 160.91C42.28 156.54 44.73 154.69 47.97 154.02L109.2 141.51C109.2 141.51 107.12 143.85 108.71 148.23C109.25 149.74 109.83 151.08 110.25 152Z" fill="#B9E4EA"/>
<path d="M45.21 152.7L19.1 115.76" stroke="#424242" stroke-width="2.071" stroke-miterlimit="10"/>
<path d="M47.26 136.95L13.68 120.03L12.32 122.71L51.12 142.48L47.26 136.95Z" fill="#424242"/>
<path d="M108.79 133.03L106.33 130.33L68.5 147.69L47.26 137.18L50.88 142.36L64.95 149.55L75.43 147.94L108.79 133.03Z" fill="#689F38"/>
<path d="M118.02 126.35L72.29 147.03C69.47 148.36 66.53 148.23 63.83 146.67L6.09001 117.35C4.44001 116.29 3.95001 114.74 4.05001 113.66C4.15001 112.58 4.40001 111.41 7.30001 110.57L10.01 109.57L69.33 138.68L117.5 118.75L118.02 126.35V126.35Z" fill="#C62828"/>
<path d="M71.73 143.72C70.5863 144.256 69.3311 144.513 68.0686 144.468C66.806 144.422 65.5725 144.077 64.47 143.46L8.10001 115.06C7.30001 114.62 7.06001 113.61 7.54001 112.83C8.78001 110.78 11.06 104.3 7.30001 98.9199L69.54 130.58L71.73 143.72Z" fill="#F5F5F5"/>
<path d="M115.58 124.01L71.73 143.72C70.28 144.35 67.39 145.47 64.06 143.23C66.69 143.42 68.54 142.33 69.49 140.56C70.42 138.84 70.14 136.02 69.01 134.43C68.32 133.47 66.47 131.94 65.66 131.08L113.09 112.53C117.29 110.8 121.23 113.39 121.86 116.54C122.56 120.1 118.02 123.01 115.58 124.01Z" fill="#94C6D6"/>
<path d="M117.78 110.99L72.51 131.19C69.66 132.32 66.47 132.17 63.74 130.79L5.89 101.41C5.29 101.11 4.39 100.34 4.1 99.2499C3.67 97.6299 4.23 95.4999 6.36 94.6599L59.37 83.4299L117.78 110.99V110.99Z" fill="#C62828"/>
<path d="M121.18 113.92L116.25 112.13L106.09 112.72L72.51 127.71C69.66 128.84 66.47 128.69 63.74 127.31L5.89 97.9299C4.4 97.1699 4.93 95.1599 6.36 94.6499L48.06 76.0099C49.25 75.7899 50.47 75.9199 51.58 76.3899L111.07 104.75C111.07 104.75 120.51 111.21 121.18 113.92Z" fill="#F5B346"/>
<path d="M105.53 113C105.53 113 110.74 111.17 115.66 111.39C120.58 111.61 123.35 114.44 123.35 114.44C122.34 109.92 118.05 108.05 118.05 108.05L53.05 75.32C52.6 75.13 50.94 74.74 48.39 75.79C46.33 76.64 39.6 79.79 39.6 79.79L105.53 113Z" fill="#FF8736"/>
<path d="M111.48 110.86L44.97 77.3099L47.17 76.3199L114.81 110.22L111.48 110.86Z" fill="#424242"/>
<path d="M123.61 115.25C123.14 113.38 122.35 111.57 120.12 110.63C117.27 109.43 114.67 109.18 110.43 110.81L105.52 112.99V116.45L111.73 113.69C114.88 112.21 119.52 112.53 120.68 115.98C121.95 119.76 119.78 122.09 114.29 124.61L105.37 128.63V132.11L115.63 127.54C120.18 125.72 125.36 122.3 123.61 115.25V115.25Z" fill="#424242"/>
</svg>
