<svg width="101" height="130" viewBox="0 0 101 130" fill="none" xmlns="http://www.w3.org/2000/svg">
<path d="M60.7057 120.992L-24.9329 77.61L13.8752 19.921L84.2595 55.5757L60.7057 120.992Z" fill="#94C6D6"/>
<path d="M43.7466 28.9997C35.9856 25.0681 20.2462 20.2898 16.3084 16.4454C16.3084 16.4454 4.15914 43.4161 -21.1739 77.1602C-11.6021 81.1683 3.35206 82.1859 12.4512 86.7952C21.6841 91.4724 18.7016 97.36 18.7016 97.36L48.0523 39.4201C48.32 39.5557 51.5076 32.9312 43.7466 28.9997Z" fill="#B0BDC6"/>
<path d="M44.3549 28.1308C36.5939 24.1993 23.4647 20.575 22.2242 14.0615C22.2242 14.0615 8.31254 44.5113 -16.5945 73.763C-15.752 79.4024 2.88461 81.7809 12.1175 86.4581C21.3505 91.1352 18.8354 97.4278 18.8354 97.4278L48.6607 38.5512C48.7945 38.619 52.1159 32.0623 44.3549 28.1308" fill="#E1EBEF"/>
<path d="M12.585 86.863C3.35208 82.1859 -15.8215 79.8716 -21.0401 77.228L18.9692 97.4956C18.9692 97.4956 21.8179 91.5402 12.585 86.863Z" fill="#94989B"/>
<path d="M20.5464 26.9997L21.2225 25.997C22.4268 26.607 24.9049 27.3579 27.7184 28.1106C31.5364 29.204 35.9575 30.4346 39.1689 32.0615C43.4508 34.2306 44.3145 35.8451 44.5143 36.1145L43.9095 36.3126L43.3047 36.5106C43.3047 36.5106 42.3733 35.0299 38.6266 33.132C35.549 31.5729 31.2618 30.41 27.4438 29.3167C24.4964 28.4962 22.0183 27.7453 20.5464 26.9997" fill="#7D8B91"/>
<path d="M17.0964 32.4824L17.8403 31.3459C19.1784 32.0237 21.6565 32.7746 24.47 33.5273C28.4218 34.6884 32.8429 35.9191 36.0543 37.5459C40.3362 39.715 41.3337 41.3974 41.3997 41.599L40.8609 41.9986L40.1884 42.3305C40.1884 42.3305 39.3248 40.716 35.4443 38.7502C32.2328 37.1234 27.9456 35.9605 23.9938 34.7994C21.0464 33.9789 18.5683 33.228 17.0964 32.4824" fill="#7D8B91"/>
<path d="M13.5109 38.2327L14.2547 37.0962C15.5928 37.7741 18.1387 38.3912 21.0861 39.2116C25.1057 40.2389 29.6605 41.5374 33.0058 43.232C37.4215 45.4689 38.3512 47.285 38.4172 47.4866L37.7446 47.8185L37.072 48.1504C37.072 48.1504 36.2084 46.5359 32.1941 44.5023C28.9827 42.8755 24.5616 41.6448 20.5421 40.6175C17.5947 39.797 14.9828 38.9784 13.5109 38.2327" fill="#7D8B91"/>
<path d="M9.78972 44.2507L10.6014 42.9803C11.9395 43.6582 14.6192 44.3431 17.5666 45.1635C21.72 46.2586 26.2748 47.5571 29.7539 49.3195C34.3034 51.6242 35.233 53.4403 35.2991 53.6419L34.4927 53.906L33.9539 54.3057C33.9539 54.3057 33.0903 52.6911 28.9422 50.5898C25.5969 48.8952 21.0421 47.5967 17.0225 46.5694C13.9414 45.6812 11.2616 44.9963 9.78972 44.2507" fill="#7D8B91"/>
<path d="M5.79922 50.4684L6.61087 49.1981C7.94898 49.876 10.6287 50.5609 13.7099 51.4491C17.8633 52.5442 22.6197 53.7766 26.0988 55.539C30.6483 57.8437 31.7118 59.7276 31.7778 59.9292L31.1052 60.2611L30.4326 60.593C30.4326 60.593 29.569 58.9785 25.2871 56.8094C21.9418 55.1148 17.1854 53.8823 13.032 52.7872C10.0847 51.9667 7.27113 51.2141 5.79922 50.4684" fill="#7D8B91"/>
<path d="M1.67314 56.9539L2.4848 55.6835C3.8229 56.3614 6.63644 57.114 9.78538 57.8685C14.0726 59.0314 18.9628 60.3316 22.4419 62.094C27.1253 64.4665 28.1209 66.4842 28.187 66.6858L27.5144 67.0177L26.8418 67.3495C26.8418 67.3495 25.9122 65.5334 21.6302 63.3643C18.1512 61.6019 13.3947 60.3695 9.10754 59.2066C6.0924 58.5199 3.27887 57.7673 1.67314 56.9539Z" fill="#7D8B91"/>
<path d="M-2.5885 63.7069L-1.70906 62.3028C-0.237141 63.0484 2.44259 63.7333 5.72534 64.5555C10.2141 65.6524 15.1044 66.9526 18.7173 68.7828C23.5344 71.223 24.5301 73.2407 24.5961 73.4423L23.9896 73.9758L23.317 74.3077C23.317 74.3077 22.3874 72.4916 17.9716 70.2547C14.4926 68.4923 9.60233 67.1921 5.11352 66.0952C1.96458 65.3408 -0.982772 64.5203 -2.5885 63.7069" fill="#7D8B91"/>
<path d="M-7.0535 70.8613L-6.17406 69.4572C-4.70214 70.2028 -1.8886 70.9555 1.39415 71.7777C5.88296 72.8746 11.1086 74.1766 14.7215 76.0068C19.6725 78.5148 20.6003 80.6663 20.6664 80.8679L19.9938 81.1998L19.455 81.5995C19.455 81.5995 18.5932 79.6495 14.0436 77.3449C10.4308 75.5147 5.33892 74.2805 0.850114 73.1836C-2.43264 72.3614 -5.44777 71.6748 -7.0535 70.8613" fill="#7D8B91"/>
<path d="M59.2686 36.8627C67.0296 40.7942 80.1932 50.6574 85.6222 51.5579C85.6222 51.5579 71.0644 77.3085 58.8447 117.695C49.9507 112.349 40.2837 100.894 31.1846 96.2851C21.9517 91.6079 18.9692 97.4956 18.9692 97.4956L48.32 39.5557C48.1862 39.4879 51.5076 32.9312 59.2686 36.8627" fill="#B0BDC6"/>
<path d="M59.6093 35.8582C67.3703 39.7898 78.0593 48.2312 84.0447 45.378C84.0447 45.378 67.7244 74.6077 58.8746 111.994C53.8295 114.65 40.8868 101.032 31.6539 96.3546C22.4209 91.6775 18.8354 97.4278 18.8354 97.4278L48.6607 38.5512C48.6607 38.5512 51.9821 31.9945 59.6093 35.8582" fill="#D9E3E8"/>
<path d="M31.0508 96.2173C40.2838 100.894 53.4923 114.984 58.7109 117.628L18.8354 97.4278C18.8354 97.4278 21.8179 91.5402 31.0508 96.2173Z" fill="#94989B"/>
<path d="M74.6058 54.3847L75.0143 53.2464C73.81 52.6364 71.7386 51.0826 69.4673 49.2594C66.3272 46.828 62.7196 43.9916 59.5081 42.3648C55.2262 40.1956 53.4136 40.4545 53.0782 40.4527L53.2763 41.0575L53.4743 41.6623C53.4743 41.6623 55.2191 41.5373 58.9658 43.4352C62.0435 44.9943 65.5173 47.7629 68.6574 50.1944C71.1963 52.1531 73.2677 53.7069 74.6058 54.3847" fill="#7D8B91"/>
<path d="M72.2263 60.4097L72.7026 59.1376C71.3645 58.4598 69.2931 56.906 67.0218 55.0829C63.7478 52.5836 60.1402 49.7472 56.9288 48.1204C52.6468 45.9513 50.7004 46.1423 50.4988 46.2083L50.6969 46.8131L50.8272 47.5517C50.8272 47.5517 52.6398 47.2929 56.5203 49.2586C59.7318 50.8855 63.2056 53.6541 66.4795 56.1533C68.683 58.1103 70.7544 59.6641 72.2263 60.4097" fill="#7D8B91"/>
<path d="M69.7112 66.7023L70.1875 65.4302C68.8494 64.7524 66.8458 63.0648 64.4407 61.1739C61.2345 58.5408 57.4931 55.6366 54.1478 53.942C49.7321 51.7051 47.7179 52.03 47.5163 52.096L47.6466 52.8346L47.7769 53.5732C47.7769 53.5732 49.5895 53.3144 53.6038 55.3479C56.8153 56.9747 60.4229 59.8111 63.629 62.4442C66.1679 64.4029 68.2393 65.9567 69.7112 66.7023" fill="#7D8B91"/>
<path d="M67.1944 73.3303L67.7384 71.9244C66.4003 71.2466 64.2629 69.4912 61.8578 67.6003C58.5178 64.8994 54.7764 61.9952 51.2974 60.2328C46.7478 57.9282 44.7336 58.253 44.532 58.319L44.6623 59.0576L44.7926 59.7962C44.7926 59.7962 46.6052 59.5374 50.7533 61.6387C54.0986 63.3334 57.84 66.2375 61.0462 68.8706C63.4512 70.7615 65.7225 72.5847 67.1944 73.3303" fill="#7D8B91"/>
<path d="M64.4082 80.1582L64.9523 78.7523C63.6141 78.0744 61.4767 76.3191 58.9378 74.3603C55.5978 71.6595 51.7904 68.5537 48.3113 66.7913C43.7618 64.4866 41.6138 64.7437 41.4122 64.8097L41.5425 65.5483L41.6728 66.2869C41.6728 66.2869 43.4854 66.0281 47.7673 68.1972C51.1126 69.8918 54.92 72.9976 58.26 75.6984C60.665 77.5894 62.9363 79.4125 64.4082 80.1582" fill="#7D8B91"/>
<path d="M61.6202 87.3214L62.1643 85.9155C60.8262 85.2377 58.5549 83.4145 56.0838 81.322C52.61 78.5534 48.6688 75.3798 45.1897 73.6174C40.5063 71.2449 38.2905 71.6358 38.089 71.7018L38.2192 72.4404L38.3495 73.179C38.3495 73.179 40.3637 72.8542 44.6457 75.0233C48.1247 76.7857 51.9322 79.8915 55.406 82.6601C57.7433 84.6848 60.0145 86.508 61.6202 87.3214Z" fill="#7D8B91"/>
<path d="M58.6967 94.7523L59.3085 93.2126C57.8366 92.467 55.6991 90.7116 53.0942 88.5513C49.5544 85.5811 45.6132 82.4075 42.0003 80.5773C37.1831 78.1371 34.9673 78.5279 34.7657 78.594L34.896 79.3326L35.0263 80.0712C35.0263 80.0712 37.0405 79.7463 41.4562 81.9832C44.9353 83.7456 48.8766 86.9192 52.4164 89.8894C54.8197 92.1157 57.091 93.9389 58.6967 94.7523" fill="#7D8B91"/>
<path d="M55.5698 102.585L56.1816 101.045C54.7097 100.299 52.4385 98.4761 49.8335 96.3158C46.2937 93.3456 42.1526 89.9027 38.5398 88.0725C33.5888 85.5644 31.3052 86.0891 31.1036 86.1551L31.2339 86.8937L31.2964 87.7661C31.2964 87.7661 33.3784 87.3075 37.9279 89.6122C41.5408 91.4424 45.5481 94.8175 49.0879 97.7877C51.6268 99.7465 53.9641 101.771 55.5698 102.585" fill="#7D8B91"/>
</svg>
