<svg width="160" height="160" viewBox="0 0 160 160" fill="none" xmlns="http://www.w3.org/2000/svg">
<path d="M154.341 91.8258L53.0156 150.326L19.993 72.2883L103.269 24.2086L154.341 91.8258Z" fill="#94C6D6"/>
<path d="M49.158 47.8504C39.9755 53.152 24.6136 66.0319 18.0669 67.4896C18.0669 67.4896 37.4988 97.8561 55.0607 146.19C65.5277 139.091 76.5284 124.507 87.2941 118.292C98.2182 111.985 102.24 118.951 102.24 118.951L62.6612 50.398C62.9778 50.2152 58.3406 42.5489 49.158 47.8504Z" fill="#B0BDC6"/>
<path d="M48.6765 46.6508C39.4939 51.9524 27.0487 62.9373 19.5749 59.864C19.5749 59.864 41.3834 94.3468 54.6443 139.253C60.9609 142.15 75.8037 124.715 86.7278 118.407C97.6519 112.1 102.398 118.859 102.398 118.859L62.1797 49.1983C62.338 49.1069 57.8591 41.3492 48.6765 46.6508" fill="#E1EBEF"/>
<path d="M87.4524 118.2C76.5283 124.507 61.3935 142.533 55.219 146.098L102.557 118.768C102.557 118.768 98.3765 111.893 87.4524 118.2Z" fill="#94989B"/>
<path d="M31.6615 70.1956L31.0885 68.8376C32.5134 68.015 34.9307 65.9861 37.5731 63.6161C41.2324 60.448 45.4336 56.7558 49.2333 54.5621C54.2995 51.6371 56.5226 51.8313 56.9306 51.8068L56.7299 52.556L56.5291 53.3051C56.5291 53.3051 54.3975 53.2693 49.9645 55.8287C46.3231 57.931 42.2803 61.5317 38.621 64.6999C35.8202 67.1613 33.403 69.1901 31.6615 70.1956" fill="#7D8B91"/>
<path d="M34.9587 77.3689L34.2943 75.8527C35.8775 74.9386 38.2948 72.9097 40.9372 70.5397C44.7548 67.2802 48.956 63.588 52.7557 61.3943C57.8219 58.4693 60.2033 58.5721 60.453 58.639L60.502 59.4551L60.3927 60.3626C60.3927 60.3626 58.1696 60.1684 53.5783 62.8192C49.7787 65.0129 45.7358 68.6136 41.9182 71.8732C39.1174 74.3346 36.7002 76.3635 34.9587 77.3689" fill="#7D8B91"/>
<path d="M38.4387 84.859L37.7743 83.3427C39.3575 82.4286 41.6833 80.2414 44.4841 77.78C48.2103 74.3622 52.5698 70.5786 56.5278 68.2935C61.7524 65.2771 64.2252 65.5382 64.4749 65.6051L64.3656 66.5126L64.2562 67.4201C64.2562 67.4201 62.0332 67.2259 57.2836 69.9681C53.4839 72.1618 49.2827 75.8539 45.5565 79.2718C42.7557 81.7332 40.1802 83.8535 38.4387 84.859" fill="#7D8B91"/>
<path d="M42.1015 92.6656L41.3457 90.991C42.9289 90.077 45.4131 87.7984 48.2139 85.337C52.0984 81.8277 56.4579 78.0441 60.5742 75.6676C65.9571 72.5598 68.4299 72.8209 68.6796 72.8878L68.4119 73.8867L68.4609 74.7028C68.4609 74.7028 66.2379 74.5086 61.3299 77.3422C57.3719 79.6273 53.0125 83.4109 49.2862 86.8287C46.3271 89.3816 43.843 91.6602 42.1015 92.6656" fill="#7D8B91"/>
<path d="M45.7888 100.88L45.033 99.2057C46.6162 98.2917 49.1004 96.0131 52.0595 93.4603C55.944 89.951 60.3704 85.9177 64.4867 83.5412C69.8696 80.4333 72.5007 80.603 72.7504 80.67L72.6411 81.5774L72.5318 82.485C72.5318 82.485 70.3087 82.2908 65.2425 85.2158C61.2845 87.5009 56.8581 91.5342 52.9735 95.0435C50.1728 97.5049 47.5303 99.8749 45.7888 100.88" fill="#7D8B91"/>
<path d="M49.6589 109.412L48.9032 107.737C50.4864 106.823 53.1288 104.453 55.9965 101.742C60.0394 98.1413 64.6241 94.0166 68.7404 91.6401C74.2816 88.4408 77.0041 88.7688 77.2538 88.8358L77.1445 89.7433L77.0352 90.6508C77.0352 90.6508 74.5624 90.3897 69.4962 93.3147C65.3798 95.6912 60.9534 99.7245 56.9106 103.325C54.2012 105.945 51.5587 108.315 49.6589 109.412Z" fill="#7D8B91"/>
<path d="M53.7118 118.26L52.8647 116.427C54.6062 115.421 57.0903 113.143 60.1164 110.34C64.2261 106.49 68.8108 102.365 73.0855 99.8972C78.785 96.6066 81.5075 96.9346 81.7572 97.0015L81.8976 97.9759L81.7883 98.8834C81.7883 98.8834 79.3155 98.6223 74.091 101.639C69.9746 104.015 65.3899 108.14 61.2801 111.99C58.4124 114.702 55.6117 117.163 53.7118 118.26" fill="#7D8B91"/>
<path d="M58.039 127.583L57.1918 125.75C58.9334 124.744 61.5758 122.374 64.6018 119.572C68.7116 115.721 73.5216 111.256 77.7962 108.788C83.654 105.406 86.468 105.892 86.7177 105.959L86.6083 106.866L86.6573 107.682C86.6573 107.682 84.0932 107.263 78.7103 110.371C74.4356 112.839 69.784 117.213 65.6742 121.064C62.6482 123.866 59.9388 126.486 58.039 127.583" fill="#7D8B91"/>
<path d="M67.5232 37.2473C76.7058 31.9458 95.5411 25.082 100.077 20.1412C100.077 20.1412 116.659 52.153 149.736 91.5288C138.355 97.0442 120.225 99.2791 109.459 105.495C98.5349 111.802 102.557 118.768 102.557 118.768L62.9778 50.2152C62.8195 50.3066 58.3406 42.5489 67.5232 37.2473" fill="#B0BDC6"/>
<path d="M66.725 36.2306C75.9076 30.929 91.6434 25.6436 92.7188 17.6344C92.7188 17.6344 111.678 53.7625 143.937 87.6999C143.287 94.6187 120.767 98.7552 109.843 105.062C98.9184 111.369 102.398 118.859 102.398 118.859L62.1797 49.1984C62.1797 49.1984 57.7008 41.4407 66.725 36.2306" fill="#D9E3E8"/>
<path d="M109.301 105.586C120.225 99.2791 143.403 95.1851 149.578 91.6202L102.398 118.859C102.398 118.859 98.3766 111.893 109.301 105.586Z" fill="#94989B"/>
<path d="M95.6229 33.2674L94.7333 32.0923C93.3084 32.915 90.3428 33.9939 86.969 35.0973C82.3957 36.6823 77.0976 38.4746 73.298 40.6683C68.2317 43.5933 67.2883 45.6156 67.0631 45.9567L67.8123 46.1575L68.5615 46.3582C68.5615 46.3582 69.5962 44.4942 74.0292 41.9349C77.6706 39.8325 82.8103 38.1317 87.3837 36.5467C91.074 35.2605 94.0397 34.1815 95.6229 33.2674" fill="#7D8B91"/>
<path d="M100.187 39.7096L99.2056 38.3761C97.6224 39.2902 94.6568 40.3691 91.2831 41.4725C86.5514 43.1489 81.2533 44.9412 77.4537 47.1349C72.3874 50.0599 71.2857 52.1736 71.2188 52.4234L71.968 52.6241L72.8086 52.9832C72.8086 52.9832 73.7519 50.9609 78.3432 48.3101C82.1429 46.1163 87.2826 44.4155 92.0143 42.7391C95.4794 41.794 98.4451 40.715 100.187 39.7096" fill="#7D8B91"/>
<path d="M104.933 46.4685L103.952 45.135C102.369 46.049 99.3119 46.9697 95.7799 48.1645C90.9568 49.6826 85.5005 51.5662 81.5425 53.8514C76.3179 56.8678 75.3076 59.1398 75.2407 59.3895L76.0813 59.7486L76.9219 60.1077C76.9219 60.1077 77.8652 58.0854 82.6148 55.3432C86.4145 53.1494 91.7126 51.3572 96.5356 49.8391C100.226 48.5529 103.192 47.4739 104.933 46.4685" fill="#7D8B91"/>
<path d="M110.021 53.4524L108.948 51.9606C107.365 52.8747 104.15 53.8867 100.618 55.0816C95.6365 56.691 90.1801 58.5747 86.0638 60.9513C80.6809 64.0591 79.6706 66.3311 79.6037 66.5808L80.4443 66.9399L81.2849 67.299C81.2849 67.299 82.2282 65.2766 87.1362 62.4431C91.0942 60.1579 96.5505 58.2742 101.374 56.7562C104.906 55.5613 108.279 54.4579 110.021 53.4524" fill="#7D8B91"/>
<path d="M115.133 60.8445L114.061 59.3527C112.477 60.2668 109.262 61.2788 105.572 62.5651C100.59 64.1745 94.8842 65.9913 90.7679 68.3678C85.385 71.4757 84.2164 73.8391 84.1495 74.0888L84.9901 74.4479L85.8307 74.8069C85.8307 74.8069 86.7741 72.7846 91.8403 69.8596C95.7983 67.5745 101.504 65.7577 106.486 64.1483C110.018 62.9534 113.392 61.85 115.133 60.8445" fill="#7D8B91"/>
<path d="M120.586 68.4617L119.514 66.97C117.931 67.884 114.557 68.9874 110.775 70.1154C105.636 71.8162 99.7712 73.7244 95.6549 76.101C90.1137 79.3002 89.0365 81.8219 88.9696 82.0717L89.8101 82.4307L90.6507 82.7898C90.6507 82.7898 91.661 80.5178 96.7272 77.5928C100.844 75.2162 106.55 73.3994 111.689 71.6986C115.313 70.6621 118.687 69.5586 120.586 68.4617Z" fill="#7D8B91"/>
<path d="M126.223 76.3958L125.059 74.7457C123.317 75.7511 120.102 76.7632 116.162 77.9825C110.772 79.6165 104.908 81.5246 100.633 83.9926C94.9337 87.2832 93.8565 89.805 93.7896 90.0547L94.6302 90.4138L95.4708 90.7728C95.4708 90.7728 96.481 88.5008 101.706 85.4844C105.822 83.1078 111.686 81.1997 117.076 79.5657C120.949 78.5961 124.323 77.4927 126.223 76.3958" fill="#7D8B91"/>
<path d="M132.133 84.8046L130.969 83.1545C129.228 84.16 125.854 85.2634 121.914 86.4828C116.524 88.1167 110.252 90.0494 105.977 92.5173C100.119 95.8994 99.1336 98.5794 99.0667 98.8292L99.9073 99.1882L100.839 99.7056C100.839 99.7056 101.758 97.2753 107.141 94.1675C111.416 91.6995 117.53 89.8582 122.919 88.2243C126.61 86.938 130.233 85.9015 132.133 84.8046" fill="#7D8B91"/>
</svg>
