<svg width="130" height="130" viewBox="0 0 130 130" fill="none" xmlns="http://www.w3.org/2000/svg">
<path d="M89.7057 120.992L4.06707 77.61L42.8752 19.921L113.26 55.5757L89.7057 120.992Z" fill="#94C6D6"/>
<path d="M72.7466 28.9997C64.9856 25.0682 49.2462 20.2898 45.3084 16.4454C45.3084 16.4454 33.1592 43.4162 7.82607 77.1602C17.3979 81.1683 32.3521 82.1859 41.4512 86.7952C50.6841 91.4724 47.7016 97.36 47.7016 97.36L77.0524 39.4201C77.32 39.5557 80.5076 32.9312 72.7466 28.9997Z" fill="#B0BDC6"/>
<path d="M73.3549 28.1308C65.5939 24.1993 52.4647 20.575 51.2242 14.0615C51.2242 14.0615 37.3126 44.5112 12.4055 73.7629C13.248 79.4023 31.8846 81.7809 41.1175 86.458C50.3505 91.1352 47.8354 97.4278 47.8354 97.4278L77.6607 38.5512C77.7945 38.619 81.1159 32.0623 73.3549 28.1308" fill="#E1EBEF"/>
<path d="M41.585 86.863C32.3521 82.1859 13.1785 79.8716 7.9599 77.228L47.9692 97.4956C47.9692 97.4956 50.8179 91.5402 41.585 86.863Z" fill="#94989B"/>
<path d="M49.5464 26.9997L50.2225 25.997C51.4268 26.6071 53.9049 27.358 56.7185 28.1106C60.5364 29.204 64.9575 30.4347 68.1689 32.0615C72.4509 34.2306 73.3145 35.8451 73.5143 36.1145L72.9095 36.3126L72.3047 36.5107C72.3047 36.5107 71.3733 35.03 67.6266 33.132C64.549 31.5729 60.2618 30.41 56.4438 29.3167C53.4965 28.4962 51.0183 27.7453 49.5464 26.9997" fill="#7D8B91"/>
<path d="M46.0964 32.4824L46.8403 31.3459C48.1784 32.0237 50.6565 32.7746 53.4701 33.5273C57.4219 34.6884 61.8429 35.9191 65.0543 37.546C69.3363 39.7151 70.3337 41.3974 70.3997 41.599L69.861 41.9986L69.1884 42.3305C69.1884 42.3305 68.3248 40.716 64.4443 38.7502C61.2328 37.1234 56.9456 35.9605 52.9938 34.7994C50.0465 33.9789 47.5683 33.228 46.0964 32.4824" fill="#7D8B91"/>
<path d="M42.5109 38.2327L43.2547 37.0962C44.5928 37.7741 47.1388 38.3912 50.0861 39.2116C54.1057 40.2389 58.6605 41.5374 62.0058 43.232C66.4215 45.4689 67.3512 47.285 67.4172 47.4866L66.7446 47.8185L66.0721 48.1504C66.0721 48.1504 65.2084 46.5359 61.1941 44.5024C57.9827 42.8755 53.5617 41.6448 49.5421 40.6175C46.5947 39.7971 43.9828 38.9784 42.5109 38.2327" fill="#7D8B91"/>
<path d="M38.7897 44.2507L39.6014 42.9804C40.9395 43.6582 43.6192 44.3431 46.5666 45.1636C50.72 46.2587 55.2748 47.5571 58.7539 49.3195C63.3034 51.6242 64.2331 53.4403 64.2991 53.6419L63.4927 53.906L62.9539 54.3057C62.9539 54.3057 62.0903 52.6912 57.9422 50.5899C54.5969 48.8952 50.0421 47.5968 46.0225 46.5695C42.9414 45.6812 40.2616 44.9963 38.7897 44.2507" fill="#7D8B91"/>
<path d="M34.7992 50.4684L35.6109 49.1981C36.949 49.876 39.6287 50.5608 42.7099 51.4491C46.8633 52.5442 51.6197 53.7766 55.0988 55.539C59.6483 57.8437 60.7118 59.7276 60.7778 59.9292L60.1052 60.2611L59.4327 60.593C59.4327 60.593 58.569 58.9785 54.2871 56.8094C50.9419 55.1147 46.1854 53.8823 42.032 52.7872C39.0847 51.9667 36.2711 51.2141 34.7992 50.4684" fill="#7D8B91"/>
<path d="M30.6732 56.9539L31.4848 55.6836C32.8229 56.3614 35.6365 57.1141 38.7854 57.8685C43.0726 59.0314 47.9628 60.3316 51.4419 62.094C56.1253 64.4665 57.1209 66.4842 57.187 66.6858L56.5144 67.0177L55.8418 67.3496C55.8418 67.3496 54.9122 65.5334 50.6303 63.3643C47.1512 61.6019 42.3948 60.3695 38.1076 59.2066C35.0924 58.52 32.2789 57.7673 30.6732 56.9539Z" fill="#7D8B91"/>
<path d="M26.4115 63.7069L27.291 62.3028C28.7629 63.0484 31.4426 63.7333 34.7254 64.5555C39.2142 65.6524 44.1044 66.9526 47.7173 68.7828C52.5345 71.223 53.5301 73.2407 53.5961 73.4423L52.9896 73.9758L52.317 74.3077C52.317 74.3077 51.3874 72.4916 46.9716 70.2547C43.4926 68.4923 38.6023 67.1921 34.1135 66.0952C30.9646 65.3408 28.0172 64.5203 26.4115 63.7069" fill="#7D8B91"/>
<path d="M21.9465 70.8613L22.826 69.4572C24.2979 70.2028 27.1114 70.9555 30.3942 71.7777C34.883 72.8746 40.1086 74.1766 43.7215 76.0068C48.6725 78.5148 49.6004 80.6663 49.6664 80.8679L48.9938 81.1998L48.4551 81.5995C48.4551 81.5995 47.5932 79.6495 43.0436 77.3449C39.4308 75.5147 34.3389 74.2805 29.8501 73.1836C26.5674 72.3614 23.5522 71.6748 21.9465 70.8613" fill="#7D8B91"/>
<path d="M88.2686 36.8627C96.0296 40.7942 109.193 50.6573 114.622 51.5579C114.622 51.5579 100.064 77.3085 87.8447 117.695C78.9507 112.349 69.2838 100.894 60.1847 96.2851C50.9517 91.6079 47.9692 97.4956 47.9692 97.4956L77.32 39.5557C77.1862 39.4879 80.5076 32.9312 88.2686 36.8627" fill="#B0BDC6"/>
<path d="M88.6093 35.8582C96.3703 39.7897 107.059 48.2312 113.045 45.378C113.045 45.378 96.7244 74.6077 87.8746 111.994C82.8295 114.65 69.8868 101.032 60.6539 96.3546C51.421 91.6775 47.8354 97.4278 47.8354 97.4278L77.6607 38.5512C77.6607 38.5512 80.9821 31.9945 88.6093 35.8582" fill="#D9E3E8"/>
<path d="M60.0508 96.2173C69.2838 100.894 82.4923 114.984 87.7109 117.628L47.8354 97.4278C47.8354 97.4278 50.8179 91.5402 60.0508 96.2173Z" fill="#94989B"/>
<path d="M103.606 54.3847L104.014 53.2465C102.81 52.6364 100.739 51.0826 98.4673 49.2595C95.3272 46.828 91.7196 43.9916 88.5081 42.3648C84.2262 40.1957 82.4136 40.4545 82.0782 40.4527L82.2763 41.0575L82.4743 41.6623C82.4743 41.6623 84.2192 41.5373 87.9658 43.4353C91.0435 44.9943 94.5173 47.7629 97.6574 50.1944C100.196 52.1531 102.268 53.7069 103.606 54.3847" fill="#7D8B91"/>
<path d="M101.226 60.4097L101.703 59.1377C100.364 58.4598 98.2931 56.906 96.0218 55.0829C92.7479 52.5836 89.1402 49.7472 85.9288 48.1204C81.6469 45.9513 79.7005 46.1423 79.4989 46.2084L79.6969 46.8131L79.8272 47.5517C79.8272 47.5517 81.6398 47.2929 85.5203 49.2587C88.7318 50.8855 92.2056 53.6541 95.4795 56.1534C97.683 58.1103 99.7544 59.6641 101.226 60.4097" fill="#7D8B91"/>
<path d="M98.7113 66.7023L99.1875 65.4303C97.8494 64.7524 95.8458 63.0648 93.4407 61.1739C90.2345 58.5408 86.4931 55.6367 83.1479 53.942C78.7321 51.7051 76.7179 52.03 76.5163 52.096L76.6466 52.8346L76.7769 53.5732C76.7769 53.5732 78.5895 53.3144 82.6038 55.3479C85.8153 56.9748 89.4229 59.8112 92.6291 62.4442C95.1679 64.4029 97.2394 65.9567 98.7113 66.7023" fill="#7D8B91"/>
<path d="M96.1944 73.3304L96.7385 71.9245C95.4004 71.2466 93.2629 69.4913 90.8578 67.6003C87.5179 64.8995 83.7764 61.9953 80.2974 60.2329C75.7478 57.9282 73.7336 58.2531 73.532 58.3191L73.6623 59.0577L73.7926 59.7963C73.7926 59.7963 75.6052 59.5375 79.7533 61.6388C83.0986 63.3334 86.84 66.2376 90.0462 68.8706C92.4513 70.7616 94.7225 72.5847 96.1944 73.3304" fill="#7D8B91"/>
<path d="M93.4082 80.1582L93.9523 78.7523C92.6142 78.0745 90.4767 76.3191 87.9378 74.3604C84.5979 71.6595 80.7904 68.5538 77.3113 66.7914C72.7618 64.4867 70.6138 64.7437 70.4122 64.8098L70.5425 65.5484L70.6728 66.287C70.6728 66.287 72.4854 66.0281 76.7673 68.1972C80.1126 69.8919 83.92 72.9976 87.26 75.6985C89.6651 77.5894 91.9363 79.4126 93.4082 80.1582" fill="#7D8B91"/>
<path d="M90.6203 87.3214L91.1643 85.9156C89.8262 85.2377 87.5549 83.4146 85.0838 81.322C81.61 78.5534 77.6688 75.3798 74.1897 73.6174C69.5064 71.245 67.2906 71.6358 67.089 71.7019L67.2193 72.4405L67.3496 73.1791C67.3496 73.1791 69.3637 72.8542 73.6457 75.0233C77.1248 76.7857 80.9322 79.8915 84.406 82.6601C86.7433 84.6849 89.0145 86.508 90.6203 87.3214Z" fill="#7D8B91"/>
<path d="M87.6967 94.7523L88.3085 93.2126C86.8366 92.467 84.6992 90.7116 82.0943 88.5513C78.5544 85.5811 74.6132 82.4075 71.0003 80.5773C66.1831 78.1371 63.9673 78.5279 63.7657 78.594L63.896 79.3326L64.0263 80.0712C64.0263 80.0712 66.0405 79.7463 70.4563 81.9832C73.9353 83.7456 77.8766 86.9192 81.4164 89.8894C83.8197 92.1157 86.091 93.9389 87.6967 94.7523" fill="#7D8B91"/>
<path d="M84.5698 102.585L85.1817 101.045C83.7097 100.299 81.4385 98.4761 78.8336 96.3158C75.2938 93.3456 71.1527 89.9027 67.5398 88.0725C62.5888 85.5644 60.3052 86.0891 60.1036 86.1551L60.2339 86.8937L60.2964 87.7661C60.2964 87.7661 62.3784 87.3075 66.928 89.6122C70.5408 91.4424 74.5481 94.8175 78.0879 97.7877C80.6268 99.7465 82.9641 101.771 84.5698 102.585" fill="#7D8B91"/>
</svg>
