<svg width="24" height="24" viewBox="0 0 24 24" fill="none" xmlns="http://www.w3.org/2000/svg">
<path d="M9.31001 6.71002C9.2173 6.80254 9.14376 6.91242 9.09357 7.0334C9.04339 7.15437 9.01756 7.28405 9.01756 7.41502C9.01756 7.54599 9.04339 7.67567 9.09357 7.79665C9.14376 7.91762 9.2173 8.02751 9.31001 8.12002L13.19 12L9.31001 15.88C9.12303 16.067 9.01799 16.3206 9.01799 16.585C9.01799 16.8494 9.12303 17.103 9.31001 17.29C9.49698 17.477 9.75058 17.582 10.015 17.582C10.2794 17.582 10.533 17.477 10.72 17.29L15.31 12.7C15.4027 12.6075 15.4763 12.4976 15.5264 12.3766C15.5766 12.2557 15.6025 12.126 15.6025 11.995C15.6025 11.8641 15.5766 11.7344 15.5264 11.6134C15.4763 11.4924 15.4027 11.3825 15.31 11.29L10.72 6.70002C10.34 6.32002 9.70001 6.32002 9.31001 6.71002Z" fill="#F8F5E4"/>
</svg>
