<svg width="25" height="25" viewBox="0 0 25 25" fill="none" xmlns="http://www.w3.org/2000/svg">
<path d="M14.5833 19.7917C18.5114 19.7917 20.476 19.7917 21.6958 18.5708C22.9166 17.351 22.9166 15.3865 22.9166 11.4583C22.9166 7.53021 22.9166 5.56563 21.6958 4.34583C20.476 3.125 18.5114 3.125 14.5833 3.125H10.4166C6.48852 3.125 4.52394 3.125 3.30415 4.34583C2.08331 5.56563 2.08331 7.53021 2.08331 11.4583C2.08331 15.3865 2.08331 17.351 3.30415 18.5708C3.98435 19.2521 4.89581 19.5531 6.24998 19.6854" stroke="#F8F5E4" stroke-width="2.08333" stroke-linecap="round" stroke-linejoin="round"/>
<path d="M14.5833 19.7917C13.2958 19.7917 11.8771 20.3125 10.5823 20.9844C8.50105 22.0646 7.46042 22.6052 6.94792 22.2604C6.43542 21.9167 6.5323 20.849 6.72709 18.7146L6.77084 18.2292" stroke="#F8F5E4" stroke-width="2.08333" stroke-linecap="round"/>
<path d="M10.9978 14.9832C10.8145 14.9832 10.7046 14.8825 10.668 14.6809C10.668 14.1221 10.7092 13.513 10.7916 12.8534C10.8833 12.1939 11.0115 11.3924 11.1764 10.4489L11.2451 10.0504C11.3733 9.25345 11.4374 8.58474 11.4374 8.04428C11.4374 7.19238 11.3 6.76642 11.0252 6.76642C10.8512 6.76642 10.7642 6.97253 10.7642 7.38474C10.7642 7.48551 10.7962 7.73283 10.8603 8.12673C10.8603 8.13589 10.8374 8.16337 10.7916 8.20917C10.6359 8.34657 10.5214 8.41528 10.4481 8.41528C10.1916 8.41528 10.0634 8.10841 10.0634 7.49467V7.35726C10.0634 7.11909 10.0863 6.91757 10.1321 6.75268C10.1871 6.57864 10.2833 6.42749 10.4207 6.29925C10.5764 6.171 10.7687 6.10688 10.9978 6.10688C11.1993 6.10688 11.3733 6.14352 11.5199 6.2168C11.6665 6.29009 11.7855 6.39085 11.8771 6.51909C12.0237 6.73894 12.1153 7.06413 12.152 7.49467C12.1611 7.59543 12.1657 7.77406 12.1657 8.03054C12.1657 8.83665 12.0283 9.71604 11.7535 10.6687C11.6344 11.0626 11.5336 11.5618 11.4512 12.1664C11.3687 12.7618 11.3275 13.3802 11.3275 14.0214C11.3275 14.5252 11.3321 14.8321 11.3413 14.942C11.1764 14.942 11.0848 14.9512 11.0665 14.9695C11.0481 14.9786 11.0252 14.9832 10.9978 14.9832ZM10.9978 16.5359C10.8603 16.5359 10.7504 16.4809 10.668 16.371C10.5672 16.2794 10.5168 16.1649 10.5168 16.0275C10.5168 15.8992 10.5718 15.7802 10.6817 15.6702C10.7916 15.5512 10.9153 15.4916 11.0527 15.4916C11.1626 15.4916 11.2726 15.5512 11.3825 15.6702C11.4924 15.7893 11.5474 15.9038 11.5474 16.0138C11.5474 16.3618 11.3642 16.5359 10.9978 16.5359ZM14.414 14.4336C14.3224 14.4336 14.2353 14.3191 14.1529 14.0901C14.0705 13.8519 14.0292 13.4992 14.0292 13.0321C14.0292 12.8672 14.0384 12.5557 14.0567 12.0977C14.075 11.7588 14.0842 11.3832 14.0842 10.971L14.0567 8.71757L14.0292 6.46413C14.0292 6.31757 14.0888 6.1939 14.2079 6.09314C14.327 5.98322 14.4598 5.92825 14.6063 5.92825C14.6979 5.92825 14.7758 5.96032 14.8399 6.02444C14.9041 6.08856 14.9361 6.171 14.9361 6.27177C14.9361 7.07787 14.8903 8.17253 14.7987 9.55574C14.6979 11.0855 14.6476 12.1802 14.6476 12.8397C14.6476 13.3252 14.6384 13.6779 14.6201 13.8977C14.6109 14.1084 14.588 14.2504 14.5514 14.3237C14.5239 14.397 14.4781 14.4336 14.414 14.4336ZM14.1666 16.7832C14.0567 16.7832 13.9514 16.7328 13.8506 16.6321C13.759 16.5313 13.7132 16.4076 13.7132 16.2611C13.7132 16.0962 13.7682 15.9542 13.8781 15.8351C13.988 15.7069 14.1208 15.6428 14.2766 15.6428C14.4415 15.6428 14.5743 15.7069 14.675 15.8351C14.785 15.9542 14.8399 16.1099 14.8399 16.3023C14.8399 16.6229 14.6155 16.7832 14.1666 16.7832Z" fill="#F8F5E4"/>
</svg>
