<svg width="33" height="33" viewBox="0 0 33 33" fill="none" xmlns="http://www.w3.org/2000/svg">
<path d="M8.0135 9.62501L11.5005 13.112L9.55625 15.0563L2.75 8.25001L9.55625 1.44376L11.5005 3.38801L8.0135 6.87501H17.875C20.7924 6.87501 23.5903 8.03393 25.6532 10.0968C27.7161 12.1597 28.875 14.9576 28.875 17.875C28.875 20.7924 27.7161 23.5903 25.6532 25.6532C23.5903 27.7161 20.7924 28.875 17.875 28.875H5.5V26.125H17.875C20.063 26.125 22.1615 25.2558 23.7086 23.7086C25.2558 22.1615 26.125 20.063 26.125 17.875C26.125 15.687 25.2558 13.5886 23.7086 12.0414C22.1615 10.4942 20.063 9.62501 17.875 9.62501H8.0135Z" fill="#F8F5E4"/>
</svg>
