<svg width="54" height="52" viewBox="0 0 54 52" fill="none" xmlns="http://www.w3.org/2000/svg">
<path d="M8.60706 30.7459C8.60706 30.7459 9.60167 34.4192 15.8303 33.4796L16.8885 31.0211L15.0959 29.1532L10.1395 27.5846L8.60706 30.7459Z" fill="#34484C"/>
<path d="M28.4508 23.8576C28.4508 25.1582 27.7532 25.5024 25.9931 26.2149L10.9577 32.3049C10.6347 32.3051 10.3149 32.2442 10.0165 32.1257C9.71813 32.0072 9.44704 31.8335 9.21876 31.6144C8.99047 31.3952 8.80949 31.1351 8.68615 30.8488C8.56282 30.5625 8.49956 30.2557 8.5 29.9459V9.68051C8.5 8.37907 9.29804 7.94739 10.9577 7.32556L25.994 1.23317C26.6459 1.23317 27.2711 1.48151 27.7321 1.92358C28.1932 2.36564 28.4523 2.96525 28.4525 3.59053V23.8584" fill="#AD7029"/>
<path d="M9.86432 32.0594C9.86432 32.0594 15.5024 33.608 15.832 33.478C16.1599 33.3416 15.6195 31.1318 15.6195 31.1318L13.5826 29.0272L11.6837 28.9422L11.35 29.3963L9.86432 32.0594Z" fill="#34484C"/>
<path d="M25.6385 2.64214L8.95673 9.36198L9.73886 13.6699L12.2208 13.9082L20.5098 12.6284L25.6619 10.0392L29.4529 5.05646C28.6265 3.63226 27.4077 2.75046 25.6385 2.64214Z" fill="#F4F5F5"/>
<path d="M13.3743 10.8536C13.3743 10.4748 13.448 10.1724 13.5818 9.9172C11.8736 9.76314 10.2609 9.29055 9.08639 8.27475C8.6949 8.61897 8.5025 9.04502 8.5025 9.68371V29.9499C8.50272 30.5751 8.76173 31.1746 9.22258 31.6166C9.68344 32.0587 10.3084 32.3071 10.9602 32.3073L13.3861 31.3252C13.381 31.2546 13.3735 31.1904 13.3735 31.1198V10.8536" fill="#34484C"/>
<path d="M33.7593 25.8579C33.7593 27.1618 33.0608 27.5028 31.2999 28.2169L15.8303 33.478C15.1782 33.478 14.5528 33.2296 14.0916 32.7874C13.6304 32.3451 13.3712 31.7453 13.371 31.1198V10.8536C13.371 9.55377 14.1698 9.12049 15.8303 8.49464L31.2999 3.23592C31.9516 3.23549 32.5768 3.48334 33.038 3.92495C33.4992 4.36657 33.7586 4.9658 33.7593 5.59087V25.8587" fill="#BAD8BC"/>
<path d="M27.3525 9.41976C27.3686 9.45871 27.3765 9.50035 27.3756 9.54225C27.3748 9.58415 27.3653 9.62547 27.3476 9.66379C27.3299 9.70212 27.3044 9.73668 27.2727 9.76545C27.2409 9.79422 27.2035 9.81664 27.1626 9.83138L18.9346 12.8756C18.8523 12.9061 18.7607 12.9041 18.6799 12.8701C18.5991 12.8362 18.5355 12.7729 18.503 12.6942C18.4715 12.6154 18.4736 12.5277 18.509 12.4504C18.5444 12.373 18.6102 12.3122 18.6921 12.281L26.9233 9.23682C27.0056 9.20716 27.0967 9.20973 27.177 9.24396C27.2573 9.27818 27.3203 9.34133 27.3525 9.41976Z" fill="#905A24"/>
<path d="M27.3525 10.8721C27.3684 10.911 27.3761 10.9526 27.3751 10.9945C27.3742 11.0363 27.3646 11.0776 27.3469 11.1158C27.3293 11.1541 27.3039 11.1886 27.2722 11.2174C27.2406 11.2462 27.2033 11.2688 27.1626 11.2837L18.9346 14.3263C18.8941 14.3415 18.8508 14.349 18.8073 14.3482C18.7637 14.3475 18.7208 14.3385 18.6808 14.3218C18.6409 14.3051 18.6048 14.2811 18.5746 14.251C18.5444 14.2209 18.5206 14.1854 18.5047 14.1465C18.4887 14.1077 18.4809 14.0661 18.4817 14.0244C18.4825 13.9826 18.4919 13.9414 18.5093 13.9031C18.5267 13.8648 18.5518 13.8302 18.5832 13.8012C18.6145 13.7722 18.6515 13.7494 18.692 13.7341L26.9233 10.6883C27.0058 10.6583 27.0972 10.6609 27.1777 10.6955C27.2581 10.7301 27.321 10.7939 27.3525 10.8729" fill="#905A24"/>
<path d="M24.5552 13.4051C24.6221 13.5688 24.5811 13.7397 24.464 13.7822L18.8443 15.8604C18.7272 15.9037 18.58 15.8042 18.5114 15.6405C18.447 15.4769 18.4905 15.3059 18.6059 15.2634L24.2256 13.1869C24.3394 13.1452 24.4908 13.2406 24.5552 13.4059" fill="#905A24"/>
<path d="M3.54114 42.3024C3.54114 42.3024 4.61355 46.2669 11.3324 45.2543L12.4759 42.6001L10.5436 40.5853L5.19074 38.8923L3.54114 42.3024Z" fill="#34484C"/>
<path d="M24.9525 34.8829C24.9525 36.2863 24.1996 36.6554 22.2991 37.4264L6.07407 43.9962C5.72556 43.9964 5.38042 43.9308 5.05839 43.8029C4.73637 43.6751 4.44377 43.4876 4.19733 43.2513C3.9509 43.0149 3.75546 42.7342 3.62219 42.4253C3.48892 42.1165 3.42043 41.7854 3.42065 41.4511V19.5874C3.42065 18.1776 4.28059 17.7114 6.07407 17.0415L22.2991 10.4709C22.6474 10.4706 22.9923 10.5363 23.3142 10.6639C23.636 10.7916 23.9285 10.9789 24.1749 11.215C24.4213 11.4511 24.6168 11.7315 24.7502 12.0401C24.8836 12.3487 24.9524 12.6795 24.9525 13.0136V34.8829Z" fill="#1EA0CD"/>
<path d="M4.8971 43.725C4.8971 43.725 10.9802 45.3996 11.3307 45.2568C11.6871 45.1107 11.1049 42.7261 11.1049 42.7261L8.90483 40.4522L6.85872 40.3639L6.49902 40.8525L4.89459 43.725" fill="#34484C"/>
<path d="M21.921 11.9817L3.92426 19.2383L4.76662 23.8841L7.44346 24.1408L16.3875 22.7583L21.9469 19.9653L26.0383 14.5886C25.1449 13.0513 23.8299 12.0981 21.9227 11.9817" fill="#F4F5F5"/>
<path d="M8.6882 20.8455C8.6882 20.4403 8.76013 20.1121 8.90652 19.8361C7.0662 19.6724 5.32793 19.1621 4.05475 18.0637C3.6365 18.436 3.42737 18.8982 3.42737 19.5882V41.4511C3.42693 41.7853 3.49521 42.1164 3.62829 42.4252C3.76138 42.7341 3.95666 43.0148 4.20297 43.2512C4.44927 43.4876 4.74176 43.6751 5.06369 43.8029C5.38562 43.9308 5.73068 43.9965 6.07911 43.9963L8.6974 42.9371C8.69064 42.8632 8.68701 42.7891 8.68652 42.7149V20.8455H8.6882Z" fill="#34484C"/>
<path d="M30.6801 37.0325C30.6801 38.4374 29.9289 38.8057 28.0267 39.576L11.3332 45.2552C10.6298 45.2545 9.95536 44.9862 9.45803 44.509C8.96069 44.0318 8.68111 43.3848 8.68066 42.7101V20.8415C8.68066 19.4373 9.54394 18.9704 11.3332 18.298L28.0267 12.622C28.3752 12.6219 28.7203 12.6877 29.0422 12.8155C29.3642 12.9434 29.6568 13.1309 29.9032 13.3672C30.1496 13.6036 30.345 13.8842 30.4783 14.193C30.6117 14.5019 30.6802 14.8329 30.6801 15.1671V37.0325Z" fill="#94C6D6"/>
<path d="M23.7682 19.2969C23.7852 19.3391 23.7933 19.3841 23.7922 19.4293C23.7911 19.4746 23.7806 19.5191 23.7615 19.5605C23.7424 19.6018 23.715 19.6392 23.6808 19.6704C23.6467 19.7016 23.6064 19.726 23.5624 19.7422L14.687 23.0255C14.5982 23.0585 14.4994 23.0566 14.4121 23.0203C14.3247 22.9839 14.2558 22.9161 14.2202 22.8313C14.1861 22.7455 14.1887 22.6501 14.2276 22.5661C14.2665 22.4821 14.3384 22.4162 14.4277 22.3828L23.3031 19.1011C23.347 19.0846 23.3939 19.0765 23.4411 19.0773C23.4883 19.0782 23.5349 19.088 23.5781 19.1062C23.6213 19.1244 23.6604 19.1506 23.693 19.1834C23.7256 19.2161 23.7512 19.2547 23.7682 19.2969Z" fill="#198BA9"/>
<path d="M23.7679 20.868C23.8017 20.953 23.7991 21.0474 23.7605 21.1306C23.7219 21.2137 23.6506 21.2788 23.5621 21.3117L14.6867 24.5942C14.6427 24.6108 14.5958 24.619 14.5485 24.6182C14.5012 24.6174 14.4546 24.6076 14.4112 24.5895C14.3678 24.5714 14.3286 24.5453 14.2958 24.5126C14.263 24.48 14.2372 24.4414 14.22 24.3992C14.1859 24.3137 14.1887 24.2188 14.2276 24.1353C14.2665 24.0518 14.3384 23.9866 14.4274 23.9539L23.3028 20.6706C23.3468 20.654 23.3938 20.646 23.4411 20.647C23.4884 20.648 23.535 20.6579 23.5782 20.6763C23.6215 20.6946 23.6605 20.721 23.6931 20.7539C23.7256 20.7868 23.7511 20.8256 23.7679 20.868Z" fill="#198BA9"/>
<path d="M20.7498 23.5985C20.8201 23.7766 20.7766 23.9579 20.6503 24.0029L14.5855 26.2455C14.4601 26.2936 14.302 26.1877 14.2292 26.0112C14.1581 25.8315 14.2008 25.6501 14.3271 25.6044L20.3909 23.3618C20.5189 23.3176 20.6795 23.4228 20.7506 23.5985" fill="#198BA9"/>
<path d="M18.3658 47.6158C18.3658 47.6158 19.5285 51.8964 26.787 50.8012L28.0233 47.9351L25.9345 45.7599L20.1526 43.9297L18.3666 47.6158" fill="#34484C"/>
<path d="M41.4962 39.5904C41.4962 41.1069 40.6848 41.5073 38.6303 42.3369L21.1053 49.4355C20.3456 49.4355 19.617 49.1461 19.0797 48.6309C18.5425 48.1157 18.2405 47.4169 18.2403 46.6882V23.0656C18.2403 21.5476 19.1697 21.0421 21.1053 20.3175L38.6303 13.219C39.3902 13.2192 40.1188 13.5088 40.6562 14.0241C41.1936 14.5394 41.4957 15.2382 41.4962 15.9671V39.5904Z" fill="#78111F"/>
<path d="M19.8322 49.1498C19.8322 49.1498 26.4047 50.956 26.787 50.8003C27.1693 50.6447 26.5419 48.0699 26.5419 48.0699L24.1662 45.613L21.9536 45.5143L21.5646 46.0455L19.8331 49.1507" fill="#34484C"/>
<path d="M38.2187 14.8575L18.7723 22.6926L19.6858 27.7154L22.5801 27.9898L32.2352 26.499L38.2413 23.4789L42.6623 17.6738C41.6936 16.0129 40.2757 14.9826 38.2137 14.8575" fill="#F4F5F5"/>
<path d="M23.9286 24.4289C23.9286 23.9916 24.0097 23.6386 24.1653 23.3377C22.1744 23.1612 20.2973 22.6091 18.9254 21.4232C18.472 21.8252 18.2462 22.3243 18.2462 23.0681V46.6898C18.2463 47.0508 18.3205 47.4083 18.4646 47.7417C18.6088 48.0752 18.8199 48.3782 19.0861 48.6334C19.3523 48.8886 19.6683 49.091 20.0161 49.229C20.3638 49.3671 20.7365 49.4381 21.1129 49.4379L23.9403 48.2922C23.9331 48.2132 23.9292 48.1339 23.9286 48.0547V24.4297" fill="#34484C"/>
<path d="M47.6814 41.9245C47.6814 43.441 46.87 43.839 44.818 44.6718L26.7836 50.8035C26.0244 50.804 25.296 50.5151 24.7587 50.0005C24.2214 49.4859 23.9192 48.7877 23.9186 48.0594V24.4313C23.9186 22.9148 24.8479 22.4117 26.7836 21.6872L44.8188 15.5539C45.578 15.5541 46.3059 15.8434 46.8427 16.3583C47.3795 16.8732 47.6812 17.5714 47.6814 18.2996V41.9245Z" fill="#F5B346"/>
<path d="M40.2189 22.7584C40.2375 22.804 40.2466 22.8528 40.2455 22.9018C40.2444 22.9508 40.2333 22.9992 40.2127 23.0441C40.1921 23.089 40.1624 23.1295 40.1255 23.1634C40.0885 23.1972 40.0449 23.2237 39.9972 23.2414L30.4058 26.7863C30.3586 26.8042 30.3082 26.813 30.2575 26.8121C30.2068 26.8113 30.1567 26.8008 30.1102 26.7814C30.0637 26.7619 30.0217 26.7338 29.9866 26.6987C29.9515 26.6636 29.9239 26.6222 29.9055 26.5769C29.8868 26.5315 29.8777 26.483 29.8787 26.4342C29.8797 26.3854 29.8908 26.3373 29.9113 26.2926C29.9319 26.248 29.9614 26.2077 29.9984 26.1741C30.0353 26.1406 30.0788 26.1143 30.1264 26.097L39.7186 22.5482C39.8141 22.5125 39.9203 22.5146 40.0141 22.554C40.1079 22.5934 40.1815 22.6669 40.2189 22.7584Z" fill="#78111F"/>
<path d="M40.2188 24.4538C40.2373 24.4992 40.2462 24.5476 40.245 24.5964C40.2438 24.6451 40.2326 24.6931 40.212 24.7376C40.1914 24.7821 40.1618 24.8223 40.1249 24.8558C40.088 24.8893 40.0446 24.9155 39.9971 24.9328L30.4048 28.4801C30.3091 28.5154 30.2027 28.5129 30.1089 28.473C30.0151 28.4331 29.9416 28.3592 29.9046 28.2675C29.8674 28.1753 29.8697 28.0728 29.9111 27.9822C29.9525 27.8917 30.0296 27.8206 30.1255 27.7844L39.7177 24.2412C39.7652 24.2231 39.8159 24.2143 39.867 24.2152C39.9181 24.2161 39.9684 24.2268 40.0151 24.2466C40.0619 24.2664 40.104 24.2949 40.1391 24.3305C40.1742 24.3661 40.2016 24.408 40.2196 24.4538" fill="#78111F"/>
<path d="M36.9606 27.4066C37.0376 27.5975 36.9907 27.7949 36.851 27.8438L30.302 30.2678C30.1639 30.3175 29.9916 30.2036 29.9155 30.0118C29.8377 29.8217 29.8854 29.6227 30.0242 29.5721L36.5733 27.1514C36.708 27.1009 36.8803 27.2148 36.9606 27.4074" fill="#78111F"/>
</svg>
